<?xml version="1.0" encoding="UTF-8"?>
<svg xmlns="http://www.w3.org/2000/svg" xmlns:xlink="http://www.w3.org/1999/xlink" width="24pt" height="24pt" viewBox="1.8 1.5 20.9 20.5" version="1.1">
<g id="surface1">
<path style=" stroke:none;fill-rule:nonzero;fill:#ffffff;fill-opacity:1;" d="M 11.226562 1.457031 C 10.929688 1.46875 10.234375 1.574219 9.894531 1.660156 C 9.828125 1.675781 9.726562 1.695312 9.667969 1.707031 C 9.609375 1.714844 9.515625 1.734375 9.464844 1.753906 C 9.414062 1.769531 9.308594 1.800781 9.226562 1.824219 C 8.996094 1.890625 8.574219 2.03125 8.464844 2.078125 C 8.4375 2.089844 8.359375 2.121094 8.292969 2.148438 C 8.226562 2.171875 8.136719 2.207031 8.09375 2.226562 C 8.003906 2.265625 7.140625 2.691406 7.070312 2.734375 C 6.515625 3.0625 6.519531 3.058594 6.199219 3.292969 C 6.15625 3.324219 6.074219 3.382812 6.011719 3.425781 C 5.882812 3.515625 5.558594 3.777344 5.398438 3.921875 C 5.257812 4.046875 4.464844 4.835938 4.332031 4.988281 C 3.953125 5.410156 3.535156 5.992188 3.230469 6.519531 C 3.152344 6.652344 3.078125 6.777344 3.066406 6.800781 C 3 6.910156 2.710938 7.507812 2.625 7.71875 C 2.574219 7.851562 2.515625 7.984375 2.503906 8.011719 C 2.492188 8.042969 2.46875 8.101562 2.457031 8.148438 C 2.441406 8.1875 2.40625 8.292969 2.375 8.375 C 2.339844 8.453125 2.304688 8.5625 2.292969 8.613281 C 2.28125 8.664062 2.25 8.773438 2.222656 8.851562 C 2.199219 8.933594 2.164062 9.066406 2.144531 9.148438 C 2.125 9.226562 2.097656 9.339844 2.082031 9.398438 C 1.996094 9.761719 1.910156 10.339844 1.867188 10.828125 C 1.8125 11.492188 1.835938 12.640625 1.921875 13.238281 C 1.9375 13.339844 1.960938 13.507812 1.972656 13.609375 C 1.988281 13.710938 2.011719 13.835938 2.023438 13.886719 C 2.039062 13.941406 2.070312 14.082031 2.09375 14.199219 C 2.117188 14.316406 2.15625 14.460938 2.175781 14.519531 C 2.199219 14.582031 2.214844 14.652344 2.214844 14.675781 C 2.214844 14.703125 2.230469 14.761719 2.25 14.808594 C 2.273438 14.855469 2.292969 14.921875 2.300781 14.960938 C 2.316406 15.046875 2.371094 15.195312 2.414062 15.289062 C 2.4375 15.332031 2.453125 15.382812 2.453125 15.398438 C 2.453125 15.421875 2.472656 15.484375 2.496094 15.539062 C 2.597656 15.777344 2.621094 15.832031 2.652344 15.90625 C 2.710938 16.046875 3.121094 16.863281 3.171875 16.945312 C 3.203125 16.988281 3.238281 17.050781 3.253906 17.078125 C 3.269531 17.109375 3.300781 17.164062 3.328125 17.207031 C 3.351562 17.242188 3.40625 17.332031 3.449219 17.40625 C 3.550781 17.566406 4.019531 18.203125 4.199219 18.414062 C 4.671875 18.96875 5.339844 19.609375 5.945312 20.082031 C 6.089844 20.199219 6.660156 20.585938 6.683594 20.585938 C 6.691406 20.585938 6.734375 20.617188 6.78125 20.652344 C 6.828125 20.6875 6.894531 20.730469 6.933594 20.742188 C 6.96875 20.761719 7.0625 20.8125 7.132812 20.851562 C 7.207031 20.898438 7.40625 21 7.574219 21.082031 C 7.871094 21.230469 7.957031 21.269531 8.160156 21.355469 C 8.210938 21.375 8.285156 21.410156 8.324219 21.433594 C 8.363281 21.449219 8.414062 21.464844 8.433594 21.464844 C 8.457031 21.464844 8.507812 21.484375 8.550781 21.503906 C 8.632812 21.542969 8.765625 21.59375 8.894531 21.625 C 8.9375 21.640625 9.011719 21.660156 9.054688 21.675781 C 9.292969 21.753906 9.628906 21.84375 9.933594 21.90625 C 10.050781 21.929688 10.199219 21.960938 10.265625 21.976562 C 10.332031 21.988281 10.484375 22.011719 10.601562 22.027344 C 10.71875 22.039062 10.898438 22.0625 11 22.078125 C 11.238281 22.113281 13.121094 22.113281 13.375 22.078125 C 13.476562 22.0625 13.65625 22.042969 13.773438 22.027344 C 13.890625 22.011719 14.039062 21.988281 14.105469 21.972656 C 14.171875 21.960938 14.324219 21.929688 14.441406 21.90625 C 14.558594 21.882812 14.714844 21.847656 14.785156 21.828125 C 15.050781 21.757812 15.242188 21.703125 15.320312 21.675781 C 15.367188 21.660156 15.4375 21.640625 15.480469 21.625 C 15.6875 21.566406 15.996094 21.449219 16.398438 21.273438 C 16.757812 21.117188 17.355469 20.804688 17.566406 20.664062 C 17.632812 20.621094 17.6875 20.585938 17.691406 20.585938 C 17.75 20.585938 18.609375 19.953125 18.890625 19.707031 C 19.238281 19.398438 19.523438 19.121094 19.800781 18.828125 C 20.128906 18.46875 20.199219 18.390625 20.332031 18.214844 C 20.40625 18.117188 20.476562 18.039062 20.484375 18.03125 C 20.496094 18.027344 20.53125 17.980469 20.566406 17.925781 C 20.597656 17.871094 20.675781 17.757812 20.738281 17.675781 C 20.800781 17.59375 20.851562 17.511719 20.851562 17.5 C 20.851562 17.484375 20.863281 17.464844 20.875 17.460938 C 20.894531 17.453125 20.964844 17.339844 21.183594 16.980469 C 21.292969 16.792969 21.628906 16.121094 21.722656 15.898438 C 21.777344 15.769531 21.835938 15.628906 21.855469 15.582031 C 21.878906 15.535156 21.894531 15.484375 21.894531 15.460938 C 21.894531 15.441406 21.902344 15.414062 21.914062 15.398438 C 21.9375 15.375 22.09375 14.902344 22.171875 14.625 C 22.296875 14.171875 22.433594 13.484375 22.464844 13.132812 C 22.472656 13.046875 22.492188 12.886719 22.503906 12.785156 C 22.539062 12.546875 22.539062 11.03125 22.507812 10.785156 C 22.492188 10.683594 22.46875 10.484375 22.457031 10.347656 C 22.441406 10.207031 22.417969 10.039062 22.402344 9.972656 C 22.375 9.84375 22.328125 9.613281 22.292969 9.40625 C 22.28125 9.335938 22.257812 9.238281 22.242188 9.191406 C 22.230469 9.148438 22.199219 9.039062 22.179688 8.960938 C 22.117188 8.734375 21.957031 8.246094 21.894531 8.078125 C 21.863281 8 21.828125 7.902344 21.8125 7.863281 C 21.800781 7.828125 21.78125 7.773438 21.769531 7.742188 C 21.753906 7.71875 21.722656 7.652344 21.703125 7.601562 C 21.585938 7.332031 21.253906 6.683594 21.117188 6.457031 C 20.890625 6.085938 20.355469 5.328125 20.257812 5.238281 C 20.238281 5.222656 20.179688 5.152344 20.121094 5.078125 C 19.828125 4.714844 18.992188 3.917969 18.453125 3.492188 C 18.3125 3.378906 17.738281 2.988281 17.71875 2.988281 C 17.710938 2.988281 17.664062 2.957031 17.617188 2.921875 C 17.5 2.835938 17.308594 2.730469 16.800781 2.476562 C 16.332031 2.246094 16.269531 2.21875 16.078125 2.148438 C 16.011719 2.121094 15.9375 2.089844 15.90625 2.078125 C 15.820312 2.039062 15.621094 1.96875 15.535156 1.949219 C 15.492188 1.9375 15.425781 1.914062 15.386719 1.902344 C 15.199219 1.828125 14.550781 1.660156 14.320312 1.625 C 14.238281 1.613281 14.128906 1.59375 14.078125 1.574219 C 14.03125 1.558594 13.945312 1.546875 13.894531 1.546875 C 13.84375 1.546875 13.714844 1.527344 13.613281 1.507812 C 13.46875 1.476562 13.203125 1.460938 12.425781 1.457031 C 11.878906 1.449219 11.335938 1.449219 11.226562 1.457031 Z M 12.96875 1.761719 C 13.480469 1.800781 13.972656 1.878906 14.398438 1.980469 C 14.464844 1.996094 14.5625 2.015625 14.613281 2.027344 C 14.699219 2.046875 14.84375 2.085938 15.148438 2.171875 C 15.292969 2.21875 15.425781 2.265625 15.539062 2.3125 C 15.585938 2.332031 15.632812 2.347656 15.652344 2.347656 C 15.679688 2.347656 15.835938 2.410156 15.953125 2.46875 C 15.988281 2.492188 16.035156 2.507812 16.050781 2.507812 C 16.09375 2.507812 16.640625 2.765625 16.976562 2.945312 C 17.195312 3.0625 17.574219 3.289062 17.785156 3.4375 C 17.976562 3.566406 18.59375 4.023438 18.613281 4.054688 C 18.621094 4.0625 18.722656 4.152344 18.839844 4.253906 C 19.265625 4.617188 19.863281 5.261719 20.222656 5.746094 C 20.320312 5.878906 20.40625 6 20.417969 6.011719 C 20.484375 6.101562 20.65625 6.367188 20.785156 6.585938 C 20.867188 6.726562 20.945312 6.859375 20.960938 6.878906 C 21.019531 6.980469 21.390625 7.734375 21.449219 7.894531 C 21.492188 7.988281 21.535156 8.089844 21.546875 8.113281 C 21.5625 8.136719 21.574219 8.171875 21.574219 8.1875 C 21.574219 8.207031 21.589844 8.257812 21.609375 8.300781 C 21.632812 8.347656 21.652344 8.410156 21.660156 8.441406 C 21.667969 8.46875 21.703125 8.574219 21.742188 8.679688 C 21.800781 8.851562 21.820312 8.925781 21.929688 9.308594 C 21.953125 9.390625 21.972656 9.480469 21.972656 9.507812 C 21.972656 9.535156 21.988281 9.617188 22.011719 9.691406 C 22.054688 9.851562 22.121094 10.21875 22.175781 10.652344 C 22.238281 11.144531 22.230469 12.449219 22.164062 12.988281 C 22.132812 13.214844 22.097656 13.464844 22.078125 13.546875 C 21.972656 14.074219 21.933594 14.246094 21.855469 14.507812 C 21.835938 14.574219 21.796875 14.699219 21.773438 14.785156 C 21.746094 14.875 21.710938 14.984375 21.6875 15.03125 C 21.667969 15.078125 21.652344 15.128906 21.652344 15.144531 C 21.652344 15.160156 21.636719 15.210938 21.617188 15.257812 C 21.59375 15.308594 21.558594 15.398438 21.535156 15.464844 C 21.484375 15.585938 21.476562 15.617188 21.347656 15.902344 C 21.269531 16.078125 21.15625 16.316406 21.121094 16.375 C 21.105469 16.394531 21.089844 16.433594 21.082031 16.453125 C 21.070312 16.476562 21.039062 16.535156 21.011719 16.585938 C 20.980469 16.636719 20.921875 16.738281 20.882812 16.808594 C 20.652344 17.230469 20.132812 17.957031 19.769531 18.367188 C 19.222656 18.988281 18.625 19.53125 18.011719 19.960938 C 17.773438 20.128906 17.570312 20.265625 17.558594 20.265625 C 17.554688 20.265625 17.5 20.300781 17.433594 20.34375 C 17.257812 20.460938 17.113281 20.539062 16.640625 20.773438 C 16.179688 21.003906 16.109375 21.03125 15.929688 21.105469 C 15.386719 21.308594 15.097656 21.40625 14.851562 21.464844 C 14.75 21.488281 14.566406 21.535156 14.359375 21.585938 C 14.191406 21.632812 13.910156 21.683594 13.773438 21.695312 C 13.714844 21.703125 13.558594 21.726562 13.425781 21.746094 C 12.890625 21.835938 11.484375 21.835938 10.933594 21.746094 C 10.792969 21.726562 10.636719 21.703125 10.585938 21.695312 C 10.441406 21.679688 10.15625 21.625 10.0625 21.597656 C 10.011719 21.582031 9.917969 21.558594 9.847656 21.546875 C 9.777344 21.535156 9.660156 21.507812 9.585938 21.484375 C 9.515625 21.460938 9.386719 21.425781 9.308594 21.40625 C 9.101562 21.347656 8.851562 21.257812 8.449219 21.105469 C 8.039062 20.945312 7.222656 20.535156 6.9375 20.34375 C 6.875 20.300781 6.820312 20.265625 6.8125 20.265625 C 6.785156 20.265625 6.136719 19.804688 5.933594 19.640625 C 5.453125 19.253906 4.773438 18.589844 4.484375 18.230469 C 4.402344 18.125 4.328125 18.035156 4.316406 18.027344 C 4.234375 17.953125 3.640625 17.089844 3.519531 16.867188 C 3.488281 16.808594 3.433594 16.707031 3.394531 16.640625 C 3.128906 16.171875 2.921875 15.695312 2.652344 14.960938 C 2.519531 14.59375 2.347656 13.871094 2.257812 13.308594 C 2.097656 12.328125 2.097656 11.140625 2.246094 10.332031 C 2.261719 10.246094 2.285156 10.105469 2.296875 10.027344 C 2.355469 9.597656 2.578125 8.765625 2.742188 8.339844 C 2.757812 8.308594 2.789062 8.226562 2.8125 8.160156 C 2.839844 8.09375 2.878906 7.996094 2.902344 7.945312 C 2.921875 7.894531 2.957031 7.816406 2.976562 7.773438 C 3.179688 7.285156 3.667969 6.40625 3.933594 6.054688 C 3.996094 5.972656 4.070312 5.863281 4.101562 5.8125 C 4.132812 5.757812 4.1875 5.683594 4.222656 5.652344 C 4.257812 5.617188 4.339844 5.515625 4.40625 5.425781 C 4.574219 5.207031 5.058594 4.6875 5.332031 4.4375 C 5.457031 4.324219 5.601562 4.1875 5.660156 4.136719 C 5.839844 3.96875 6.546875 3.449219 6.804688 3.292969 C 6.828125 3.28125 6.933594 3.214844 7.03125 3.15625 C 7.386719 2.941406 8.238281 2.507812 8.308594 2.507812 C 8.316406 2.507812 8.367188 2.488281 8.421875 2.464844 C 8.476562 2.441406 8.558594 2.40625 8.609375 2.382812 C 8.65625 2.363281 8.707031 2.347656 8.722656 2.347656 C 8.738281 2.347656 8.789062 2.332031 8.835938 2.3125 C 8.945312 2.265625 9.078125 2.21875 9.226562 2.171875 C 9.53125 2.085938 9.675781 2.046875 9.761719 2.027344 C 9.8125 2.015625 9.90625 1.996094 9.972656 1.980469 C 10.382812 1.882812 10.898438 1.800781 11.347656 1.761719 C 11.734375 1.730469 12.59375 1.726562 12.96875 1.761719 Z M 12.96875 1.761719 "/>
<path style=" stroke:none;fill-rule:nonzero;fill:#ffffff;fill-opacity:1;" d="M 11.773438 2.089844 C 11.523438 2.183594 11.425781 2.34375 11.429688 2.640625 C 11.433594 2.761719 11.449219 2.867188 11.46875 2.90625 C 11.625 3.175781 11.710938 3.226562 12.019531 3.226562 C 12.207031 3.226562 12.265625 3.214844 12.34375 3.167969 C 12.558594 3.035156 12.613281 2.929688 12.613281 2.625 C 12.613281 2.390625 12.578125 2.296875 12.453125 2.191406 C 12.304688 2.066406 11.96875 2.015625 11.773438 2.089844 Z M 12.21875 2.324219 C 12.304688 2.398438 12.375 2.535156 12.375 2.625 C 12.375 2.742188 12.273438 2.929688 12.179688 2.988281 C 12.078125 3.054688 11.921875 3.046875 11.816406 2.964844 C 11.644531 2.835938 11.648438 2.433594 11.820312 2.324219 C 11.941406 2.246094 12.128906 2.246094 12.21875 2.324219 Z M 12.21875 2.324219 "/>
<path style=" stroke:none;fill-rule:nonzero;fill:#ffffff;fill-opacity:1;" d="M 13.292969 2.171875 C 13.039062 2.265625 12.933594 2.441406 12.933594 2.769531 C 12.933594 2.960938 12.941406 2.988281 13.011719 3.089844 C 13.265625 3.4375 13.882812 3.414062 14.074219 3.046875 C 14.136719 2.921875 14.171875 2.683594 14.148438 2.53125 C 14.121094 2.382812 13.953125 2.214844 13.777344 2.164062 C 13.625 2.128906 13.402344 2.128906 13.292969 2.171875 Z M 13.800781 2.441406 C 13.886719 2.523438 13.894531 2.550781 13.894531 2.683594 C 13.894531 2.886719 13.800781 3.046875 13.640625 3.105469 C 13.53125 3.148438 13.519531 3.148438 13.40625 3.097656 C 13.3125 3.054688 13.273438 3.019531 13.238281 2.945312 C 13.164062 2.761719 13.210938 2.550781 13.351562 2.425781 C 13.425781 2.359375 13.464844 2.347656 13.574219 2.347656 C 13.6875 2.347656 13.71875 2.355469 13.800781 2.441406 Z M 13.800781 2.441406 "/>
<path style=" stroke:none;fill-rule:nonzero;fill:#ffffff;fill-opacity:1;" d="M 10.617188 2.246094 L 10.523438 2.269531 L 10.542969 2.433594 C 10.550781 2.527344 10.550781 2.617188 10.539062 2.628906 C 10.527344 2.644531 10.464844 2.667969 10.398438 2.675781 C 10.332031 2.683594 10.230469 2.699219 10.171875 2.707031 L 10.066406 2.726562 L 10.011719 2.542969 C 9.957031 2.359375 9.957031 2.359375 9.867188 2.367188 C 9.734375 2.378906 9.703125 2.414062 9.71875 2.53125 C 9.734375 2.621094 9.75 2.683594 9.851562 3.046875 C 9.875 3.121094 9.898438 3.222656 9.90625 3.273438 C 9.929688 3.386719 9.976562 3.421875 10.089844 3.398438 C 10.214844 3.375 10.222656 3.359375 10.175781 3.25 C 10.15625 3.199219 10.132812 3.105469 10.128906 3.042969 L 10.121094 2.921875 L 10.332031 2.875 C 10.449219 2.851562 10.558594 2.832031 10.574219 2.835938 C 10.59375 2.84375 10.617188 2.933594 10.636719 3.035156 C 10.679688 3.273438 10.707031 3.3125 10.820312 3.289062 C 10.871094 3.28125 10.917969 3.253906 10.925781 3.230469 C 10.9375 3.210938 10.929688 3.097656 10.910156 2.976562 C 10.894531 2.859375 10.867188 2.652344 10.851562 2.519531 C 10.832031 2.351562 10.8125 2.269531 10.78125 2.246094 C 10.730469 2.207031 10.738281 2.207031 10.617188 2.246094 Z M 10.617188 2.246094 "/>
<path style=" stroke:none;fill-rule:nonzero;fill:#ffffff;fill-opacity:1;" d="M 14.816406 2.484375 C 14.792969 2.515625 14.773438 2.5625 14.773438 2.585938 C 14.773438 2.621094 14.667969 2.988281 14.570312 3.285156 C 14.507812 3.464844 14.527344 3.527344 14.640625 3.550781 C 14.796875 3.582031 14.96875 3.628906 15.058594 3.667969 C 15.105469 3.691406 15.164062 3.707031 15.191406 3.707031 C 15.21875 3.710938 15.269531 3.726562 15.308594 3.746094 C 15.367188 3.777344 15.378906 3.777344 15.421875 3.742188 C 15.476562 3.691406 15.484375 3.574219 15.433594 3.5625 C 15.273438 3.515625 15.019531 3.433594 14.945312 3.398438 C 14.859375 3.367188 14.851562 3.355469 14.882812 3.300781 C 14.902344 3.269531 14.925781 3.207031 14.9375 3.160156 C 14.953125 3.078125 15.003906 2.9375 15.042969 2.839844 C 15.085938 2.734375 15.148438 2.527344 15.140625 2.519531 C 15.121094 2.5 14.921875 2.425781 14.890625 2.425781 C 14.871094 2.425781 14.835938 2.453125 14.816406 2.484375 Z M 14.816406 2.484375 "/>
<path style=" stroke:none;fill-rule:nonzero;fill:#ffffff;fill-opacity:1;" d="M 8.800781 2.726562 C 8.449219 2.835938 8.289062 3.148438 8.417969 3.472656 C 8.523438 3.746094 8.683594 3.867188 8.929688 3.867188 C 9.222656 3.867188 9.46875 3.691406 9.507812 3.464844 C 9.53125 3.324219 9.5 3.289062 9.382812 3.324219 C 9.320312 3.339844 9.289062 3.371094 9.265625 3.4375 C 9.25 3.484375 9.203125 3.558594 9.160156 3.59375 C 9.097656 3.648438 9.0625 3.65625 8.96875 3.644531 C 8.820312 3.628906 8.757812 3.574219 8.675781 3.386719 C 8.613281 3.246094 8.613281 3.238281 8.652344 3.128906 C 8.703125 2.996094 8.828125 2.90625 8.964844 2.90625 C 9.019531 2.90625 9.074219 2.925781 9.09375 2.945312 C 9.148438 3.011719 9.367188 2.988281 9.398438 2.914062 C 9.417969 2.863281 9.375 2.808594 9.25 2.742188 C 9.136719 2.6875 8.953125 2.679688 8.800781 2.726562 Z M 8.800781 2.726562 "/>
<path style=" stroke:none;fill-rule:nonzero;fill:#ffffff;fill-opacity:1;" d="M 7.578125 3.289062 C 7.535156 3.308594 7.480469 3.335938 7.460938 3.355469 C 7.441406 3.375 7.414062 3.386719 7.398438 3.386719 C 7.382812 3.386719 7.347656 3.414062 7.320312 3.445312 C 7.144531 3.644531 7.121094 3.800781 7.25 3.941406 C 7.316406 4.011719 7.347656 4.027344 7.449219 4.027344 C 7.515625 4.027344 7.601562 4.011719 7.644531 3.996094 C 7.816406 3.929688 7.988281 3.898438 8.03125 3.921875 C 8.132812 3.980469 8.0625 4.128906 7.894531 4.214844 C 7.792969 4.265625 7.785156 4.265625 7.695312 4.222656 C 7.609375 4.179688 7.601562 4.179688 7.523438 4.238281 C 7.453125 4.289062 7.445312 4.304688 7.476562 4.347656 C 7.585938 4.523438 7.96875 4.460938 8.195312 4.226562 C 8.285156 4.132812 8.292969 4.113281 8.292969 3.972656 C 8.292969 3.738281 8.242188 3.691406 7.996094 3.695312 C 7.882812 3.699219 7.757812 3.71875 7.695312 3.742188 C 7.640625 3.769531 7.550781 3.785156 7.503906 3.785156 C 7.421875 3.785156 7.414062 3.777344 7.414062 3.710938 C 7.414062 3.628906 7.453125 3.585938 7.59375 3.507812 C 7.671875 3.457031 7.683594 3.457031 7.765625 3.5 C 7.847656 3.535156 7.863281 3.535156 7.953125 3.488281 C 8.039062 3.441406 8.046875 3.425781 8.023438 3.382812 C 7.992188 3.324219 7.832031 3.253906 7.734375 3.257812 C 7.699219 3.257812 7.625 3.273438 7.578125 3.289062 Z M 7.578125 3.289062 "/>
<path style=" stroke:none;fill-rule:nonzero;fill:#ffffff;fill-opacity:1;" d="M 16.734375 3.449219 C 16.503906 3.578125 16.359375 3.953125 16.441406 4.199219 C 16.519531 4.417969 16.734375 4.546875 17.003906 4.527344 C 17.148438 4.519531 17.183594 4.503906 17.289062 4.417969 C 17.414062 4.316406 17.523438 4.121094 17.558594 3.941406 C 17.570312 3.871094 17.558594 3.8125 17.519531 3.722656 C 17.390625 3.433594 16.996094 3.296875 16.734375 3.449219 Z M 17.210938 3.675781 C 17.238281 3.703125 17.277344 3.757812 17.296875 3.804688 C 17.332031 3.882812 17.328125 3.902344 17.273438 4.035156 C 17.15625 4.289062 16.96875 4.398438 16.800781 4.300781 C 16.667969 4.222656 16.621094 4.097656 16.667969 3.933594 C 16.707031 3.808594 16.820312 3.664062 16.921875 3.625 C 16.992188 3.59375 17.148438 3.621094 17.210938 3.675781 Z M 17.210938 3.675781 "/>
<path style=" stroke:none;fill-rule:nonzero;fill:#ffffff;fill-opacity:1;" d="M 11.398438 3.546875 C 11.222656 3.558594 11.039062 3.582031 10.988281 3.597656 C 10.9375 3.613281 10.851562 3.625 10.804688 3.625 C 10.683594 3.625 10.195312 3.742188 9.773438 3.871094 C 9.464844 3.964844 9.40625 3.988281 9.078125 4.121094 C 8.851562 4.214844 8.257812 4.5 8.148438 4.566406 C 8.121094 4.585938 8.046875 4.628906 7.988281 4.667969 C 7.929688 4.703125 7.855469 4.746094 7.828125 4.765625 C 7.796875 4.785156 7.753906 4.804688 7.734375 4.816406 C 7.710938 4.828125 7.644531 4.871094 7.585938 4.917969 C 7.523438 4.960938 7.445312 5.019531 7.414062 5.039062 C 7.003906 5.316406 6.328125 5.941406 5.90625 6.425781 C 5.710938 6.652344 5.316406 7.199219 5.144531 7.484375 C 4.988281 7.746094 4.671875 8.355469 4.585938 8.574219 C 4.421875 8.972656 4.367188 9.136719 4.257812 9.519531 C 4.234375 9.601562 4.199219 9.734375 4.175781 9.816406 C 4.152344 9.898438 4.132812 9.988281 4.132812 10.015625 C 4.132812 10.042969 4.113281 10.144531 4.09375 10.238281 C 4.003906 10.632812 3.988281 10.894531 3.988281 11.800781 C 3.988281 12.789062 4.015625 13.105469 4.164062 13.691406 C 4.179688 13.753906 4.199219 13.847656 4.214844 13.90625 C 4.253906 14.089844 4.367188 14.472656 4.425781 14.601562 C 4.4375 14.628906 4.464844 14.703125 4.488281 14.761719 C 4.917969 15.886719 5.5 16.78125 6.375 17.65625 C 6.585938 17.871094 6.851562 18.113281 6.960938 18.203125 C 7.070312 18.289062 7.164062 18.367188 7.171875 18.375 C 7.207031 18.417969 7.726562 18.777344 7.8125 18.816406 C 7.835938 18.828125 7.890625 18.863281 7.933594 18.894531 C 8.03125 18.96875 8.726562 19.332031 8.933594 19.414062 C 9.011719 19.445312 9.117188 19.488281 9.160156 19.507812 C 9.207031 19.523438 9.285156 19.558594 9.339844 19.585938 C 9.398438 19.609375 9.457031 19.625 9.480469 19.625 C 9.5 19.625 9.558594 19.644531 9.605469 19.664062 C 9.734375 19.71875 10.167969 19.839844 10.464844 19.902344 C 11.398438 20.101562 12.574219 20.136719 13.464844 19.996094 C 13.5625 19.980469 13.707031 19.960938 13.785156 19.945312 C 14.054688 19.90625 14.691406 19.742188 14.875 19.664062 C 14.921875 19.644531 14.980469 19.625 15 19.625 C 15.039062 19.625 15.175781 19.574219 15.316406 19.503906 C 15.355469 19.484375 15.40625 19.464844 15.421875 19.464844 C 15.4375 19.464844 15.632812 19.378906 15.851562 19.269531 C 16.402344 18.996094 16.9375 18.675781 17.148438 18.484375 C 17.183594 18.453125 17.222656 18.425781 17.230469 18.425781 C 17.269531 18.425781 17.988281 17.792969 18.1875 17.585938 C 18.742188 17 19.03125 16.625 19.390625 16.011719 C 19.546875 15.75 19.769531 15.316406 19.855469 15.105469 C 19.871094 15.0625 19.90625 14.984375 19.929688 14.933594 C 20.011719 14.738281 20.054688 14.617188 20.132812 14.359375 C 20.179688 14.214844 20.230469 14.039062 20.253906 13.972656 C 20.273438 13.90625 20.292969 13.828125 20.292969 13.800781 C 20.292969 13.773438 20.308594 13.691406 20.332031 13.617188 C 20.382812 13.433594 20.441406 13.054688 20.496094 12.582031 C 20.542969 12.144531 20.535156 11.257812 20.484375 10.851562 C 20.378906 10.105469 20.296875 9.734375 20.121094 9.1875 C 20.070312 9.039062 20.019531 8.890625 20.003906 8.851562 C 19.992188 8.816406 19.957031 8.734375 19.929688 8.667969 C 19.871094 8.507812 19.476562 7.714844 19.414062 7.613281 C 19.382812 7.566406 19.347656 7.507812 19.332031 7.480469 C 19.289062 7.394531 19.171875 7.210938 19.113281 7.132812 C 19.105469 7.117188 19.003906 6.988281 18.898438 6.839844 C 18.632812 6.480469 18.542969 6.375 18.054688 5.894531 C 17.523438 5.367188 16.96875 4.933594 16.398438 4.605469 C 16.171875 4.472656 15.492188 4.148438 15.28125 4.066406 C 15.214844 4.042969 15.121094 4.003906 15.070312 3.984375 C 15.023438 3.960938 14.960938 3.945312 14.933594 3.945312 C 14.90625 3.945312 14.878906 3.9375 14.871094 3.921875 C 14.859375 3.910156 14.792969 3.886719 14.726562 3.871094 C 14.65625 3.851562 14.515625 3.816406 14.414062 3.785156 C 14.222656 3.730469 14.125 3.710938 13.8125 3.652344 C 13.71875 3.636719 13.542969 3.605469 13.425781 3.585938 C 13.167969 3.535156 11.878906 3.511719 11.398438 3.546875 Z M 13.199219 3.75 C 13.367188 3.769531 13.59375 3.808594 13.691406 3.828125 C 13.796875 3.851562 13.902344 3.867188 13.929688 3.867188 C 13.980469 3.867188 14.066406 3.886719 14.398438 3.988281 C 14.730469 4.078125 14.847656 4.117188 14.925781 4.152344 C 14.96875 4.171875 15.019531 4.1875 15.039062 4.1875 C 15.054688 4.1875 15.109375 4.207031 15.164062 4.230469 C 15.222656 4.253906 15.304688 4.289062 15.347656 4.308594 C 15.800781 4.5 16.441406 4.851562 16.824219 5.117188 C 17.722656 5.742188 18.652344 6.726562 19.1875 7.632812 C 19.371094 7.945312 19.648438 8.507812 19.769531 8.828125 C 19.796875 8.894531 19.835938 8.988281 19.855469 9.035156 C 19.878906 9.082031 19.894531 9.136719 19.894531 9.160156 C 19.894531 9.179688 19.910156 9.238281 19.929688 9.285156 C 20.03125 9.53125 20.160156 10.082031 20.257812 10.707031 C 20.324219 11.132812 20.324219 12.476562 20.257812 12.90625 C 20.160156 13.539062 20 14.1875 19.84375 14.59375 C 19.828125 14.625 19.796875 14.707031 19.773438 14.773438 C 19.695312 14.96875 19.667969 15.039062 19.480469 15.414062 C 19.273438 15.828125 19.214844 15.941406 19.042969 16.199219 C 18.578125 16.910156 17.9375 17.617188 17.277344 18.148438 C 17.089844 18.300781 16.757812 18.542969 16.660156 18.601562 C 16.636719 18.613281 16.5 18.695312 16.363281 18.78125 C 16.148438 18.910156 15.703125 19.140625 15.425781 19.265625 C 15.15625 19.386719 14.609375 19.570312 14.253906 19.664062 C 13.734375 19.792969 13.492188 19.832031 12.828125 19.878906 C 12.386719 19.910156 12.171875 19.914062 11.734375 19.894531 C 11.433594 19.878906 11.132812 19.851562 11.066406 19.835938 C 11 19.824219 10.871094 19.800781 10.773438 19.785156 C 10.558594 19.757812 10.316406 19.703125 10.039062 19.625 C 9.921875 19.59375 9.800781 19.5625 9.773438 19.554688 C 9.742188 19.546875 9.683594 19.523438 9.632812 19.503906 C 9.589844 19.484375 9.539062 19.464844 9.523438 19.464844 C 9.507812 19.464844 9.457031 19.449219 9.40625 19.429688 C 9.359375 19.40625 9.265625 19.371094 9.199219 19.347656 C 7.871094 18.835938 6.59375 17.84375 5.664062 16.601562 C 5.347656 16.175781 5.210938 15.949219 4.945312 15.414062 C 4.847656 15.214844 4.753906 15.03125 4.742188 15.003906 C 4.726562 14.972656 4.703125 14.921875 4.691406 14.882812 C 4.679688 14.84375 4.644531 14.746094 4.613281 14.667969 C 4.414062 14.148438 4.28125 13.617188 4.171875 12.90625 C 4.105469 12.476562 4.105469 11.105469 4.171875 10.691406 C 4.238281 10.277344 4.292969 10.003906 4.335938 9.855469 C 4.355469 9.785156 4.375 9.707031 4.375 9.683594 C 4.375 9.660156 4.390625 9.59375 4.410156 9.535156 C 4.433594 9.476562 4.472656 9.347656 4.503906 9.253906 C 4.640625 8.820312 4.957031 8.105469 5.167969 7.761719 C 5.199219 7.710938 5.234375 7.648438 5.246094 7.625 C 5.273438 7.570312 5.644531 7.019531 5.742188 6.894531 C 6.128906 6.394531 6.941406 5.582031 7.308594 5.332031 C 7.355469 5.296875 7.40625 5.261719 7.414062 5.253906 C 7.441406 5.222656 7.832031 4.960938 8.066406 4.820312 C 8.273438 4.695312 8.839844 4.410156 9.078125 4.308594 C 9.125 4.289062 9.207031 4.253906 9.261719 4.230469 C 9.316406 4.207031 9.375 4.1875 9.390625 4.1875 C 9.40625 4.1875 9.457031 4.171875 9.5 4.152344 C 9.613281 4.105469 10.039062 3.976562 10.308594 3.910156 C 10.550781 3.851562 10.761719 3.8125 11.003906 3.785156 C 11.125 3.769531 11.277344 3.746094 11.339844 3.734375 C 11.550781 3.691406 12.863281 3.703125 13.199219 3.75 Z M 13.199219 3.75 "/>
<path style=" stroke:none;fill-rule:nonzero;fill:#ffffff;fill-opacity:1;" d="M 11.480469 3.925781 C 11.054688 3.96875 10.496094 4.066406 10.238281 4.148438 C 10.167969 4.171875 10.09375 4.1875 10.066406 4.1875 C 10.042969 4.1875 9.984375 4.203125 9.9375 4.222656 C 9.890625 4.242188 9.785156 4.277344 9.707031 4.304688 C 9.558594 4.347656 9.484375 4.378906 9.226562 4.480469 C 9.054688 4.550781 8.804688 4.660156 8.738281 4.695312 C 8.710938 4.710938 8.597656 4.769531 8.484375 4.828125 C 8.375 4.886719 8.246094 4.960938 8.199219 4.988281 C 8.15625 5.015625 8.097656 5.050781 8.066406 5.0625 C 7.980469 5.109375 7.433594 5.496094 7.222656 5.667969 C 6.800781 6.003906 6.300781 6.511719 5.988281 6.917969 C 5.820312 7.132812 5.574219 7.484375 5.574219 7.503906 C 5.574219 7.507812 5.523438 7.585938 5.46875 7.667969 C 5.335938 7.871094 5.070312 8.382812 4.945312 8.683594 C 4.890625 8.8125 4.835938 8.945312 4.824219 8.972656 C 4.792969 9.042969 4.722656 9.246094 4.691406 9.347656 C 4.679688 9.390625 4.648438 9.492188 4.625 9.574219 C 4.601562 9.652344 4.566406 9.785156 4.546875 9.867188 C 4.527344 9.945312 4.5 10.066406 4.484375 10.132812 C 4.429688 10.367188 4.375 10.683594 4.359375 10.851562 C 4.351562 10.949219 4.332031 11.117188 4.320312 11.226562 C 4.289062 11.488281 4.289062 12.148438 4.320312 12.386719 C 4.335938 12.488281 4.351562 12.652344 4.359375 12.746094 C 4.390625 13.085938 4.527344 13.742188 4.644531 14.09375 C 4.660156 14.136719 4.679688 14.207031 4.691406 14.253906 C 4.722656 14.363281 4.808594 14.597656 4.902344 14.839844 C 5.019531 15.136719 5.332031 15.71875 5.632812 16.199219 C 5.734375 16.359375 6.160156 16.902344 6.371094 17.136719 C 6.585938 17.375 7.082031 17.839844 7.320312 18.019531 C 7.898438 18.457031 8.140625 18.609375 8.679688 18.878906 C 9.09375 19.082031 9.332031 19.179688 9.679688 19.296875 C 10.097656 19.433594 10.179688 19.457031 10.414062 19.507812 C 10.53125 19.53125 10.703125 19.566406 10.792969 19.589844 C 10.882812 19.609375 10.996094 19.625 11.046875 19.625 C 11.09375 19.625 11.230469 19.644531 11.347656 19.667969 C 11.644531 19.71875 12.785156 19.71875 13.078125 19.667969 C 13.199219 19.644531 13.339844 19.625 13.394531 19.625 C 13.449219 19.625 13.5625 19.609375 13.648438 19.589844 C 13.730469 19.566406 13.894531 19.53125 14.011719 19.507812 C 14.128906 19.480469 14.28125 19.445312 14.347656 19.425781 C 14.609375 19.34375 15.042969 19.199219 15.085938 19.175781 C 15.113281 19.164062 15.1875 19.128906 15.253906 19.105469 C 15.386719 19.054688 16.039062 18.738281 16.121094 18.683594 C 16.148438 18.667969 16.21875 18.625 16.28125 18.585938 C 16.339844 18.550781 16.410156 18.507812 16.441406 18.488281 C 16.46875 18.46875 16.511719 18.445312 16.535156 18.433594 C 16.554688 18.425781 16.710938 18.316406 16.875 18.191406 C 17.515625 17.71875 18.042969 17.203125 18.492188 16.613281 C 18.667969 16.382812 18.957031 15.953125 19.03125 15.828125 C 19.246094 15.425781 19.3125 15.300781 19.382812 15.148438 C 19.542969 14.792969 19.652344 14.519531 19.652344 14.480469 C 19.652344 14.457031 19.664062 14.425781 19.675781 14.414062 C 19.691406 14.398438 19.714844 14.339844 19.730469 14.28125 C 19.742188 14.222656 19.769531 14.136719 19.78125 14.09375 C 19.839844 13.921875 19.890625 13.734375 19.933594 13.535156 C 19.957031 13.414062 19.988281 13.265625 20.003906 13.199219 C 20.03125 13.074219 20.0625 12.800781 20.105469 12.375 C 20.136719 12.054688 20.136719 11.582031 20.105469 11.253906 C 20.0625 10.789062 20.03125 10.523438 20.003906 10.398438 C 19.988281 10.332031 19.960938 10.21875 19.945312 10.148438 C 19.929688 10.070312 19.90625 9.960938 19.894531 9.894531 C 19.882812 9.828125 19.863281 9.742188 19.84375 9.707031 C 19.832031 9.667969 19.800781 9.566406 19.773438 9.480469 C 19.75 9.390625 19.710938 9.273438 19.6875 9.214844 C 19.667969 9.15625 19.632812 9.0625 19.613281 9.011719 C 19.535156 8.792969 19.476562 8.660156 19.316406 8.332031 C 19.222656 8.140625 19.136719 7.96875 19.121094 7.945312 C 19.109375 7.925781 19.050781 7.828125 18.996094 7.734375 C 18.941406 7.636719 18.886719 7.554688 18.875 7.550781 C 18.863281 7.546875 18.851562 7.53125 18.851562 7.515625 C 18.851562 7.480469 18.632812 7.164062 18.402344 6.878906 C 18.050781 6.4375 17.632812 6.019531 17.1875 5.652344 C 16.988281 5.492188 16.441406 5.101562 16.347656 5.058594 C 16.324219 5.046875 16.246094 5.003906 16.171875 4.960938 C 15.875 4.78125 15.347656 4.535156 14.945312 4.382812 C 14.886719 4.359375 14.800781 4.324219 14.753906 4.304688 C 14.703125 4.28125 14.644531 4.265625 14.617188 4.265625 C 14.589844 4.265625 14.53125 4.246094 14.492188 4.226562 C 14.449219 4.207031 14.390625 4.1875 14.363281 4.1875 C 14.335938 4.1875 14.257812 4.171875 14.1875 4.148438 C 13.523438 3.941406 12.320312 3.84375 11.480469 3.925781 Z M 9.351562 5.347656 C 9.523438 5.421875 9.574219 5.484375 9.574219 5.628906 C 9.574219 5.699219 9.585938 5.761719 9.601562 5.773438 C 9.613281 5.78125 9.636719 5.828125 9.652344 5.875 C 9.667969 5.921875 9.707031 6.042969 9.742188 6.148438 C 9.78125 6.246094 9.8125 6.375 9.8125 6.421875 C 9.8125 6.542969 9.882812 6.566406 9.964844 6.464844 C 10 6.421875 10.078125 6.289062 10.136719 6.171875 C 10.257812 5.925781 10.296875 5.878906 10.421875 5.859375 C 10.59375 5.824219 10.558594 5.957031 10.277344 6.390625 C 10.199219 6.507812 10.109375 6.65625 10.078125 6.71875 C 10.046875 6.777344 10.011719 6.835938 9.996094 6.84375 C 9.960938 6.863281 9.96875 6.980469 10.011719 7.128906 C 10.035156 7.207031 10.054688 7.367188 10.054688 7.496094 C 10.054688 7.710938 10.046875 7.75 9.953125 7.9375 C 9.878906 8.105469 9.8125 8.191406 9.625 8.378906 C 9.390625 8.609375 9.160156 8.785156 9.117188 8.757812 C 9.066406 8.726562 9.097656 8.667969 9.265625 8.484375 C 9.5 8.226562 9.546875 8.121094 9.601562 7.765625 C 9.648438 7.476562 9.640625 7.332031 9.582031 7.332031 C 9.539062 7.332031 9.199219 7.699219 8.980469 7.972656 C 8.730469 8.289062 8.667969 8.351562 8.523438 8.445312 C 8.4375 8.5 8.40625 8.507812 8.355469 8.484375 C 8.265625 8.441406 8.132812 8.246094 8.132812 8.15625 C 8.132812 8.082031 8.136719 8.078125 8.222656 8.09375 C 8.339844 8.117188 8.460938 8.023438 8.878906 7.601562 C 9.0625 7.414062 9.289062 7.199219 9.378906 7.121094 C 9.46875 7.046875 9.550781 6.960938 9.558594 6.9375 C 9.566406 6.914062 9.558594 6.84375 9.535156 6.777344 C 9.515625 6.710938 9.472656 6.5625 9.4375 6.453125 C 9.332031 6.089844 9.132812 5.730469 8.917969 5.496094 C 8.84375 5.414062 8.835938 5.316406 8.902344 5.296875 C 8.976562 5.273438 9.246094 5.308594 9.351562 5.347656 Z M 15.402344 6.015625 C 15.601562 6.03125 15.628906 6.042969 15.71875 6.121094 C 15.78125 6.179688 15.820312 6.246094 15.832031 6.304688 C 15.847656 6.402344 15.804688 6.507812 15.746094 6.507812 C 15.726562 6.507812 15.675781 6.523438 15.632812 6.542969 C 15.59375 6.566406 15.542969 6.59375 15.519531 6.601562 C 15.5 6.609375 15.433594 6.644531 15.375 6.675781 C 15.316406 6.710938 15.222656 6.761719 15.171875 6.785156 C 15.121094 6.816406 15.039062 6.871094 14.988281 6.90625 C 14.9375 6.945312 14.839844 7.003906 14.773438 7.039062 C 14.605469 7.121094 14.363281 7.316406 14.375 7.347656 C 14.382812 7.359375 14.414062 7.371094 14.453125 7.367188 C 15.195312 7.304688 15.132812 7.316406 15.441406 7.136719 C 15.59375 7.042969 15.738281 6.960938 15.761719 6.953125 C 15.78125 6.941406 15.863281 6.898438 15.933594 6.851562 C 16.007812 6.8125 16.085938 6.769531 16.105469 6.757812 C 16.175781 6.730469 16.359375 6.632812 16.375 6.613281 C 16.394531 6.585938 16.617188 6.511719 16.734375 6.492188 C 16.886719 6.46875 16.933594 6.519531 16.933594 6.703125 C 16.933594 6.859375 16.855469 7.011719 16.78125 7.011719 C 16.753906 7.011719 16.679688 6.976562 16.617188 6.933594 C 16.550781 6.886719 16.464844 6.851562 16.429688 6.851562 C 16.363281 6.851562 16.191406 6.902344 16.054688 6.960938 C 15.863281 7.046875 15.820312 7.0625 15.734375 7.097656 C 15.683594 7.113281 15.59375 7.175781 15.527344 7.230469 C 15.464844 7.289062 15.398438 7.332031 15.390625 7.332031 C 15.347656 7.332031 14.984375 7.710938 14.996094 7.742188 C 15 7.761719 15.070312 7.773438 15.171875 7.773438 C 15.277344 7.773438 15.347656 7.785156 15.351562 7.800781 C 15.371094 7.855469 15.214844 7.945312 15.105469 7.945312 C 14.980469 7.945312 14.726562 8.085938 14.539062 8.253906 C 14.425781 8.355469 14.386719 8.375 14.316406 8.367188 C 14.238281 8.359375 14.222656 8.347656 14.21875 8.28125 C 14.210938 8.214844 14.253906 8.164062 14.570312 7.847656 C 14.769531 7.648438 14.933594 7.484375 14.933594 7.476562 C 14.933594 7.449219 14.695312 7.472656 14.5625 7.507812 C 14.210938 7.613281 14.03125 7.730469 13.859375 7.96875 C 13.8125 8.03125 13.742188 8.101562 13.703125 8.121094 C 13.632812 8.15625 13.617188 8.15625 13.558594 8.117188 C 13.492188 8.070312 13.480469 8.035156 13.492188 7.855469 C 13.5 7.726562 13.542969 7.652344 13.707031 7.492188 C 13.828125 7.371094 14.136719 7.148438 14.292969 7.078125 C 14.316406 7.066406 14.382812 7.007812 14.449219 6.949219 C 14.507812 6.890625 14.585938 6.828125 14.609375 6.8125 C 14.695312 6.765625 14.851562 6.625 14.851562 6.601562 C 14.851562 6.585938 14.820312 6.539062 14.777344 6.492188 C 14.558594 6.265625 14.535156 6.054688 14.71875 6.023438 C 14.851562 6 15.148438 5.996094 15.402344 6.015625 Z M 17.492188 6.910156 C 17.539062 6.992188 17.503906 7.089844 17.410156 7.136719 C 17.285156 7.199219 17.09375 7.386719 17.09375 7.441406 C 17.09375 7.542969 17.285156 7.578125 17.449219 7.507812 C 17.535156 7.476562 17.542969 7.476562 17.636719 7.550781 C 17.703125 7.609375 17.734375 7.652344 17.726562 7.691406 C 17.71875 7.742188 17.703125 7.746094 17.507812 7.746094 C 17.390625 7.746094 17.191406 7.734375 17.066406 7.726562 L 16.839844 7.703125 L 16.574219 7.964844 C 16.425781 8.109375 16.25 8.296875 16.179688 8.386719 C 16.113281 8.476562 16 8.601562 15.929688 8.671875 C 15.859375 8.738281 15.703125 8.894531 15.589844 9.011719 C 15.246094 9.367188 15.0625 9.464844 15.046875 9.300781 C 15.035156 9.203125 15.097656 9.078125 15.265625 8.878906 C 15.347656 8.785156 15.414062 8.695312 15.414062 8.683594 C 15.414062 8.628906 15.660156 8.355469 15.988281 8.039062 C 16.183594 7.851562 16.347656 7.671875 16.347656 7.648438 C 16.347656 7.621094 16.3125 7.585938 16.265625 7.558594 C 16.175781 7.515625 16.167969 7.488281 16.226562 7.441406 C 16.253906 7.414062 16.308594 7.414062 16.398438 7.425781 C 16.480469 7.433594 16.558594 7.429688 16.605469 7.40625 C 16.695312 7.367188 17.058594 7.097656 17.132812 7.011719 C 17.265625 6.863281 17.441406 6.8125 17.492188 6.910156 Z M 11.144531 7.441406 C 11.335938 7.511719 11.492188 7.625 11.492188 7.695312 C 11.492188 7.769531 11.371094 7.882812 11.238281 7.929688 C 11.109375 7.972656 11.089844 7.964844 11.03125 7.839844 C 11.003906 7.789062 10.960938 7.71875 10.925781 7.679688 C 10.804688 7.546875 10.746094 7.457031 10.746094 7.40625 C 10.746094 7.359375 10.761719 7.355469 10.875 7.371094 C 10.945312 7.382812 11.0625 7.414062 11.144531 7.441406 Z M 15.597656 8.039062 C 15.691406 8.199219 15.660156 8.28125 15.476562 8.375 C 15.347656 8.441406 15.34375 8.441406 15.292969 8.363281 C 15.253906 8.300781 15.253906 8.285156 15.296875 8.140625 C 15.375 7.878906 15.480469 7.84375 15.597656 8.039062 Z M 12.839844 8.390625 C 13.101562 8.453125 13.289062 8.507812 13.386719 8.554688 C 13.4375 8.574219 13.515625 8.609375 13.558594 8.625 C 13.605469 8.644531 13.660156 8.667969 13.679688 8.675781 C 13.703125 8.6875 13.742188 8.710938 13.773438 8.726562 C 13.800781 8.746094 13.886719 8.792969 13.960938 8.835938 C 14.230469 8.996094 14.675781 9.390625 14.910156 9.679688 C 15.125 9.945312 15.285156 10.21875 15.453125 10.601562 C 15.492188 10.683594 15.542969 10.84375 15.609375 11.09375 C 15.6875 11.378906 15.71875 11.917969 15.683594 12.316406 C 15.59375 13.230469 15.289062 13.882812 14.628906 14.542969 C 14.167969 15.003906 13.578125 15.367188 13.121094 15.464844 C 13.070312 15.476562 12.984375 15.5 12.933594 15.515625 C 12.535156 15.644531 11.574219 15.644531 11.171875 15.515625 C 11.121094 15.5 11.039062 15.476562 10.988281 15.464844 C 10.527344 15.367188 9.929688 15 9.472656 14.539062 C 8.945312 14.007812 8.710938 13.59375 8.5 12.828125 C 8.417969 12.535156 8.386719 12.007812 8.425781 11.59375 C 8.445312 11.382812 8.472656 11.183594 8.484375 11.148438 C 8.5 11.109375 8.519531 11.03125 8.535156 10.972656 C 8.566406 10.800781 8.625 10.660156 8.777344 10.332031 C 9.046875 9.769531 9.613281 9.148438 10.148438 8.835938 C 10.21875 8.792969 10.304688 8.746094 10.332031 8.726562 C 10.363281 8.710938 10.40625 8.6875 10.425781 8.675781 C 10.449219 8.667969 10.515625 8.640625 10.574219 8.613281 C 10.882812 8.476562 11.257812 8.375 11.574219 8.34375 C 11.875 8.316406 12.652344 8.339844 12.839844 8.390625 Z M 6.359375 10.304688 C 6.515625 10.398438 6.613281 10.585938 6.613281 10.796875 C 6.613281 10.949219 6.617188 10.960938 6.683594 10.988281 C 6.71875 11.003906 6.785156 11.011719 6.828125 11.011719 C 6.886719 11.011719 6.9375 11.046875 7.023438 11.132812 C 7.160156 11.273438 7.214844 11.28125 7.257812 11.179688 C 7.273438 11.128906 7.269531 11.058594 7.226562 10.898438 C 7.199219 10.777344 7.171875 10.660156 7.171875 10.628906 C 7.171875 10.597656 7.15625 10.539062 7.132812 10.496094 C 7.113281 10.457031 7.09375 10.378906 7.09375 10.332031 C 7.09375 10.253906 7.101562 10.238281 7.15625 10.238281 C 7.324219 10.238281 7.453125 10.464844 7.484375 10.800781 C 7.492188 10.894531 7.523438 11.019531 7.550781 11.070312 C 7.636719 11.238281 7.574219 11.449219 7.410156 11.566406 C 7.339844 11.617188 7.078125 11.679688 6.839844 11.707031 C 6.738281 11.71875 6.554688 11.742188 6.433594 11.757812 C 6.246094 11.78125 6.1875 11.78125 6.089844 11.746094 C 6.023438 11.726562 5.949219 11.707031 5.921875 11.707031 C 5.894531 11.707031 5.800781 11.675781 5.71875 11.636719 C 5.632812 11.601562 5.511719 11.558594 5.453125 11.550781 C 5.316406 11.527344 5.300781 11.460938 5.40625 11.355469 C 5.542969 11.207031 5.902344 11.066406 6.148438 11.066406 C 6.351562 11.066406 6.371094 11.039062 6.28125 10.902344 C 6.179688 10.75 6.113281 10.699219 5.996094 10.679688 C 5.882812 10.660156 5.863281 10.617188 5.945312 10.566406 C 5.972656 10.550781 6.03125 10.464844 6.066406 10.386719 C 6.148438 10.214844 6.1875 10.207031 6.359375 10.304688 Z M 17.8125 10.539062 C 17.8125 10.570312 17.796875 10.617188 17.777344 10.636719 C 17.757812 10.660156 17.730469 10.707031 17.722656 10.738281 C 17.707031 10.785156 17.71875 10.800781 17.769531 10.816406 C 17.875 10.84375 17.851562 10.898438 17.710938 10.96875 C 17.640625 11.003906 17.566406 11.054688 17.550781 11.078125 C 17.53125 11.097656 17.464844 11.140625 17.40625 11.171875 C 17.261719 11.25 17.179688 11.230469 17.160156 11.109375 C 17.128906 10.941406 17.269531 10.75 17.515625 10.625 C 17.570312 10.59375 17.644531 10.550781 17.675781 10.523438 C 17.761719 10.464844 17.8125 10.464844 17.8125 10.539062 Z M 18.78125 11.546875 C 18.84375 11.542969 18.941406 11.527344 19 11.507812 C 19.058594 11.484375 19.179688 11.464844 19.269531 11.464844 C 19.359375 11.464844 19.484375 11.449219 19.550781 11.425781 C 19.703125 11.371094 19.777344 11.390625 19.828125 11.507812 C 19.863281 11.59375 19.863281 11.617188 19.828125 11.691406 C 19.808594 11.742188 19.75 11.8125 19.695312 11.851562 C 19.617188 11.914062 19.585938 11.921875 19.488281 11.910156 C 19.210938 11.871094 19.011719 11.863281 19.011719 11.882812 C 19.011719 11.894531 19.105469 12 19.214844 12.117188 C 19.445312 12.355469 19.492188 12.4375 19.492188 12.574219 C 19.492188 12.691406 19.433594 12.773438 19.339844 12.773438 C 19.257812 12.773438 18.988281 12.585938 18.878906 12.457031 C 18.800781 12.351562 18.464844 12.105469 18.410156 12.105469 C 18.394531 12.105469 18.324219 12.0625 18.25 12.011719 C 18.179688 11.960938 18.105469 11.921875 18.089844 11.921875 C 18.042969 11.921875 18.046875 11.988281 18.089844 12.023438 C 18.113281 12.042969 18.136719 12.082031 18.144531 12.117188 C 18.152344 12.148438 18.1875 12.191406 18.226562 12.207031 C 18.289062 12.238281 18.292969 12.253906 18.292969 12.398438 C 18.292969 12.546875 18.289062 12.566406 18.226562 12.59375 C 18.09375 12.652344 17.921875 12.457031 17.878906 12.199219 C 17.871094 12.140625 17.84375 12.066406 17.824219 12.035156 L 17.785156 11.972656 L 17.679688 12.039062 C 17.621094 12.078125 17.550781 12.105469 17.519531 12.105469 C 17.488281 12.105469 17.433594 12.121094 17.390625 12.144531 C 17.351562 12.164062 17.242188 12.1875 17.148438 12.199219 C 17.050781 12.210938 16.960938 12.226562 16.945312 12.238281 C 16.933594 12.246094 16.863281 12.28125 16.785156 12.308594 C 16.714844 12.332031 16.636719 12.367188 16.617188 12.382812 C 16.433594 12.527344 15.921875 12.535156 15.921875 12.390625 C 15.921875 12.347656 16.050781 12.148438 16.152344 12.039062 C 16.296875 11.875 16.332031 11.867188 17.164062 11.792969 C 17.273438 11.78125 17.375 11.757812 17.390625 11.738281 C 17.40625 11.722656 17.464844 11.707031 17.519531 11.707031 C 17.59375 11.707031 17.628906 11.6875 17.683594 11.621094 C 17.753906 11.535156 17.757812 11.535156 17.851562 11.570312 C 17.917969 11.59375 17.984375 11.597656 18.046875 11.585938 C 18.105469 11.574219 18.191406 11.566406 18.246094 11.570312 C 18.300781 11.574219 18.347656 11.566406 18.347656 11.550781 C 18.347656 11.535156 18.316406 11.472656 18.28125 11.410156 C 18.214844 11.296875 18.195312 11.175781 18.230469 11.136719 C 18.242188 11.125 18.347656 11.214844 18.460938 11.332031 C 18.660156 11.535156 18.675781 11.546875 18.78125 11.546875 Z M 6.40625 12.375 C 6.511719 12.390625 6.695312 12.417969 6.8125 12.441406 C 6.929688 12.464844 7.078125 12.492188 7.148438 12.503906 C 7.339844 12.542969 7.550781 12.601562 7.726562 12.683594 C 7.878906 12.746094 7.894531 12.761719 7.886719 12.824219 C 7.878906 12.890625 7.875 12.894531 7.660156 12.902344 C 7.539062 12.90625 7.441406 12.914062 7.441406 12.921875 C 7.441406 12.929688 7.5 13.003906 7.566406 13.09375 C 7.640625 13.179688 7.734375 13.320312 7.773438 13.402344 C 7.816406 13.484375 7.878906 13.59375 7.910156 13.644531 C 7.988281 13.753906 7.988281 13.753906 7.914062 13.816406 C 7.871094 13.851562 7.8125 13.863281 7.691406 13.867188 C 7.558594 13.867188 7.523438 13.855469 7.457031 13.796875 C 7.417969 13.761719 7.324219 13.699219 7.246094 13.664062 C 7.167969 13.625 7.089844 13.585938 7.066406 13.574219 C 7.046875 13.566406 6.984375 13.53125 6.933594 13.503906 C 6.859375 13.464844 6.785156 13.453125 6.566406 13.453125 L 6.292969 13.457031 L 6.292969 13.347656 C 6.292969 13.246094 6.390625 13.054688 6.515625 12.910156 C 6.5625 12.863281 6.566406 12.84375 6.535156 12.828125 C 6.472656 12.789062 6.117188 12.761719 5.691406 12.761719 L 5.292969 12.761719 L 5.113281 12.894531 C 5.011719 12.964844 4.933594 13.035156 4.933594 13.046875 C 4.933594 13.058594 4.910156 13.066406 4.878906 13.066406 C 4.828125 13.066406 4.824219 13.054688 4.839844 12.992188 C 4.847656 12.953125 4.875 12.902344 4.894531 12.878906 C 4.917969 12.855469 4.933594 12.828125 4.933594 12.8125 C 4.933594 12.800781 4.996094 12.71875 5.070312 12.621094 C 5.214844 12.449219 5.308594 12.386719 5.453125 12.367188 C 5.601562 12.34375 6.207031 12.351562 6.40625 12.375 Z M 9.140625 16.484375 C 9.164062 16.507812 9.171875 16.691406 9.171875 17.136719 C 9.171875 17.832031 9.175781 17.820312 8.980469 17.808594 L 8.867188 17.800781 L 8.859375 17.359375 C 8.851562 17.078125 8.84375 16.914062 8.820312 16.902344 C 8.804688 16.894531 8.746094 16.894531 8.691406 16.898438 C 8.574219 16.914062 8.507812 16.875 8.507812 16.789062 C 8.507812 16.703125 8.558594 16.667969 8.667969 16.667969 C 8.742188 16.667969 8.785156 16.644531 8.867188 16.558594 C 8.972656 16.449219 9.078125 16.421875 9.140625 16.484375 Z M 11.175781 16.480469 C 11.367188 16.535156 11.476562 16.679688 11.515625 16.949219 C 11.566406 17.269531 11.484375 17.589844 11.316406 17.734375 C 11.289062 17.761719 11.207031 17.800781 11.128906 17.828125 C 11.003906 17.875 10.988281 17.875 10.851562 17.828125 C 10.605469 17.75 10.4375 17.527344 10.589844 17.480469 C 10.683594 17.449219 10.820312 17.492188 10.863281 17.558594 C 10.914062 17.636719 11.023438 17.648438 11.109375 17.589844 C 11.164062 17.550781 11.246094 17.347656 11.222656 17.320312 C 11.214844 17.3125 11.152344 17.328125 11.085938 17.351562 C 10.964844 17.394531 10.953125 17.394531 10.8125 17.347656 C 10.644531 17.289062 10.574219 17.226562 10.519531 17.066406 C 10.386719 16.691406 10.753906 16.363281 11.175781 16.480469 Z M 13.296875 16.488281 C 13.414062 16.53125 13.515625 16.625 13.535156 16.710938 C 13.570312 16.847656 13.386719 16.871094 13.246094 16.746094 C 13.144531 16.660156 13.078125 16.648438 12.996094 16.707031 C 12.925781 16.753906 12.839844 16.929688 12.871094 16.960938 C 12.882812 16.972656 12.949219 16.964844 13.015625 16.941406 C 13.132812 16.898438 13.144531 16.898438 13.28125 16.953125 C 13.375 16.988281 13.453125 17.039062 13.507812 17.105469 C 13.574219 17.191406 13.585938 17.222656 13.585938 17.371094 C 13.582031 17.617188 13.484375 17.742188 13.238281 17.828125 C 13.113281 17.871094 13.097656 17.871094 12.953125 17.828125 C 12.734375 17.765625 12.636719 17.65625 12.574219 17.398438 C 12.480469 16.992188 12.617188 16.59375 12.886719 16.5 C 13.023438 16.449219 13.183594 16.445312 13.296875 16.488281 Z M 15.320312 16.484375 C 15.566406 16.550781 15.652344 16.730469 15.652344 17.164062 C 15.652344 17.390625 15.644531 17.492188 15.609375 17.554688 C 15.535156 17.703125 15.433594 17.785156 15.285156 17.828125 C 15.15625 17.871094 15.128906 17.867188 15.003906 17.828125 C 14.8125 17.765625 14.726562 17.675781 14.667969 17.472656 C 14.601562 17.265625 14.601562 17.054688 14.65625 16.847656 C 14.746094 16.527344 14.992188 16.390625 15.320312 16.484375 Z M 15.320312 16.484375 "/>
<path style=" stroke:none;fill-rule:nonzero;fill:#ffffff;fill-opacity:1;" d="M 11.535156 8.695312 C 11.476562 8.710938 11.375 8.730469 11.308594 8.742188 C 11.113281 8.78125 10.851562 8.878906 10.59375 9.011719 C 10.382812 9.113281 10.375 9.117188 10.1875 9.238281 C 9.617188 9.601562 9.105469 10.292969 8.894531 11 C 8.761719 11.449219 8.761719 11.4375 8.761719 11.960938 C 8.765625 12.289062 8.777344 12.503906 8.796875 12.574219 C 8.816406 12.632812 8.84375 12.726562 8.851562 12.785156 C 8.894531 12.996094 9.089844 13.457031 9.234375 13.691406 C 9.503906 14.132812 10.003906 14.621094 10.40625 14.828125 C 10.675781 14.96875 10.890625 15.066406 10.9375 15.066406 C 10.960938 15.066406 10.988281 15.078125 11.003906 15.09375 C 11.015625 15.105469 11.082031 15.128906 11.148438 15.144531 C 11.214844 15.15625 11.316406 15.179688 11.375 15.195312 C 11.816406 15.304688 12.308594 15.304688 12.734375 15.199219 C 12.792969 15.179688 12.890625 15.160156 12.953125 15.148438 C 13.011719 15.132812 13.085938 15.113281 13.113281 15.097656 C 13.136719 15.082031 13.214844 15.050781 13.28125 15.027344 C 13.558594 14.917969 13.996094 14.664062 14.167969 14.507812 C 14.597656 14.121094 14.777344 13.890625 14.996094 13.449219 C 15.054688 13.332031 15.117188 13.207031 15.136719 13.167969 C 15.15625 13.128906 15.171875 13.078125 15.171875 13.054688 C 15.171875 13.035156 15.1875 12.976562 15.210938 12.929688 C 15.230469 12.878906 15.269531 12.75 15.296875 12.640625 C 15.367188 12.351562 15.367188 11.589844 15.296875 11.308594 C 15.050781 10.3125 14.515625 9.5625 13.746094 9.128906 C 13.40625 8.941406 13.28125 8.882812 13.078125 8.828125 C 13.039062 8.816406 12.964844 8.792969 12.921875 8.777344 C 12.683594 8.695312 12.441406 8.667969 12.050781 8.667969 C 11.824219 8.671875 11.59375 8.683594 11.535156 8.695312 Z M 12.960938 9.003906 C 13.015625 9.097656 13.019531 9.136719 13.015625 9.445312 C 13.011719 9.808594 13.03125 9.867188 13.15625 9.867188 C 13.253906 9.867188 13.609375 9.992188 13.761719 10.078125 C 13.78125 10.089844 13.84375 10.121094 13.894531 10.144531 C 14.046875 10.21875 14.140625 10.273438 14.273438 10.382812 C 14.339844 10.433594 14.417969 10.492188 14.445312 10.5 C 14.523438 10.53125 14.691406 10.730469 14.726562 10.84375 C 14.769531 10.960938 14.761719 11.003906 14.683594 11.085938 C 14.597656 11.183594 14.484375 11.164062 14.296875 11.027344 C 14.207031 10.960938 14.125 10.90625 14.117188 10.90625 C 14.109375 10.90625 14.054688 10.871094 13.992188 10.832031 C 13.644531 10.601562 13.222656 10.414062 13.089844 10.433594 C 13.03125 10.441406 13.027344 10.457031 13.019531 10.640625 C 13.011719 10.90625 13.039062 10.957031 13.238281 11.03125 C 13.328125 11.058594 13.460938 11.113281 13.535156 11.144531 C 13.609375 11.179688 13.691406 11.214844 13.71875 11.230469 C 13.75 11.242188 13.792969 11.265625 13.8125 11.28125 C 13.835938 11.292969 13.949219 11.363281 14.066406 11.433594 C 14.351562 11.601562 14.839844 12.007812 14.921875 12.148438 C 15.011719 12.304688 15.011719 12.484375 14.917969 12.558594 C 14.789062 12.660156 14.601562 12.609375 14.464844 12.433594 C 14.257812 12.171875 13.917969 11.910156 13.566406 11.742188 C 13.492188 11.707031 13.40625 11.667969 13.386719 11.65625 C 13.296875 11.605469 13.140625 11.546875 13.097656 11.546875 C 13.074219 11.546875 13.03125 11.527344 13.003906 11.507812 C 12.972656 11.484375 12.921875 11.464844 12.886719 11.464844 C 12.8125 11.464844 12.632812 11.375 12.570312 11.304688 C 12.523438 11.25 12.519531 11.179688 12.511719 10.148438 C 12.503906 9.0625 12.503906 9.046875 12.558594 8.980469 C 12.609375 8.917969 12.636719 8.90625 12.761719 8.90625 C 12.894531 8.90625 12.902344 8.910156 12.960938 9.003906 Z M 11.515625 9.054688 L 11.585938 9.121094 L 11.59375 10.15625 C 11.601562 10.816406 11.59375 11.214844 11.574219 11.257812 C 11.542969 11.34375 11.363281 11.464844 11.273438 11.464844 C 11.238281 11.464844 11.1875 11.484375 11.15625 11.507812 C 11.128906 11.527344 11.082031 11.546875 11.050781 11.546875 C 11.019531 11.546875 10.972656 11.566406 10.945312 11.585938 C 10.917969 11.609375 10.867188 11.625 10.835938 11.625 C 10.804688 11.625 10.765625 11.644531 10.746094 11.667969 C 10.726562 11.6875 10.683594 11.707031 10.652344 11.707031 C 10.617188 11.707031 10.574219 11.722656 10.550781 11.742188 C 10.535156 11.765625 10.476562 11.804688 10.425781 11.832031 C 10.199219 11.953125 9.941406 12.148438 9.734375 12.359375 C 9.609375 12.484375 9.496094 12.585938 9.484375 12.585938 C 9.46875 12.585938 9.4375 12.605469 9.410156 12.628906 C 9.335938 12.695312 9.207031 12.65625 9.15625 12.546875 C 9.117188 12.46875 9.117188 12.441406 9.148438 12.332031 C 9.179688 12.230469 9.238281 12.15625 9.425781 11.960938 C 9.558594 11.828125 9.78125 11.632812 9.921875 11.527344 C 10.15625 11.355469 10.246094 11.304688 10.519531 11.1875 C 11.039062 10.96875 11 11.003906 11.007812 10.71875 C 11.011719 10.582031 11.003906 10.460938 10.988281 10.445312 C 10.9375 10.394531 10.472656 10.59375 10.265625 10.753906 C 10.210938 10.792969 10.15625 10.828125 10.148438 10.828125 C 10.136719 10.828125 10.070312 10.875 10.003906 10.9375 C 9.800781 11.117188 9.667969 11.179688 9.542969 11.164062 C 9.398438 11.148438 9.332031 11.082031 9.332031 10.957031 C 9.332031 10.835938 9.390625 10.734375 9.535156 10.609375 C 9.835938 10.34375 10.074219 10.214844 10.71875 9.949219 C 10.828125 9.902344 10.933594 9.867188 10.953125 9.867188 C 11.011719 9.867188 11.035156 9.753906 11.019531 9.507812 C 11.011719 9.292969 11.015625 9.253906 11.070312 9.148438 C 11.105469 9.078125 11.164062 9.011719 11.199219 8.992188 C 11.292969 8.945312 11.4375 8.972656 11.515625 9.054688 Z M 12.300781 11.644531 C 12.332031 11.699219 12.355469 11.8125 12.367188 11.953125 L 12.386719 12.171875 L 12.535156 12.1875 C 12.613281 12.199219 12.710938 12.214844 12.746094 12.230469 C 12.785156 12.246094 12.886719 12.28125 12.972656 12.308594 C 13.0625 12.332031 13.152344 12.375 13.175781 12.390625 C 13.199219 12.410156 13.230469 12.425781 13.242188 12.425781 C 13.257812 12.425781 13.308594 12.460938 13.359375 12.507812 C 13.410156 12.550781 13.464844 12.585938 13.484375 12.585938 C 13.515625 12.585938 13.792969 12.820312 14.003906 13.015625 C 14.175781 13.179688 14.242188 13.273438 14.367188 13.515625 C 14.4375 13.660156 14.453125 13.726562 14.453125 13.855469 C 14.453125 14.003906 14.445312 14.027344 14.386719 14.0625 C 14.289062 14.128906 14.171875 14.117188 14.082031 14.039062 C 14.042969 14.003906 13.902344 13.832031 13.773438 13.660156 C 13.542969 13.351562 13.265625 13.074219 13.101562 12.988281 C 12.871094 12.871094 12.769531 12.828125 12.601562 12.789062 C 12.5 12.765625 12.40625 12.753906 12.394531 12.769531 C 12.382812 12.78125 12.375 12.902344 12.378906 13.042969 L 12.386719 13.292969 L 12.574219 13.386719 C 12.679688 13.4375 12.816406 13.515625 12.875 13.5625 C 12.980469 13.640625 13.199219 13.894531 13.199219 13.933594 C 13.199219 13.941406 13.226562 14.011719 13.261719 14.089844 C 13.339844 14.261719 13.390625 14.433594 13.40625 14.589844 C 13.414062 14.695312 13.40625 14.71875 13.335938 14.796875 C 13.261719 14.878906 13.242188 14.886719 13.152344 14.871094 C 13.042969 14.847656 12.933594 14.742188 12.933594 14.652344 C 12.933594 14.617188 12.898438 14.519531 12.851562 14.433594 C 12.8125 14.339844 12.773438 14.261719 12.773438 14.25 C 12.773438 14.242188 12.738281 14.1875 12.691406 14.132812 C 12.644531 14.070312 12.535156 13.992188 12.398438 13.921875 C 12.128906 13.78125 12.023438 13.785156 11.765625 13.929688 C 11.617188 14.019531 11.414062 14.292969 11.414062 14.414062 C 11.414062 14.644531 11.257812 14.90625 11.121094 14.90625 C 11.023438 14.90625 10.886719 14.769531 10.863281 14.648438 C 10.835938 14.484375 10.925781 14.1875 11.082031 13.945312 C 11.28125 13.644531 11.550781 13.386719 11.683594 13.386719 C 11.703125 13.386719 11.738281 13.367188 11.765625 13.339844 C 11.804688 13.308594 11.8125 13.257812 11.8125 13.046875 C 11.8125 12.863281 11.804688 12.792969 11.777344 12.785156 C 11.730469 12.765625 11.386719 12.835938 11.226562 12.894531 C 11.164062 12.917969 11.054688 12.976562 10.988281 13.027344 C 10.78125 13.179688 10.375 13.628906 10.375 13.703125 C 10.375 13.820312 10.0625 14.105469 9.9375 14.105469 C 9.835938 14.105469 9.734375 13.945312 9.734375 13.789062 C 9.734375 13.699219 9.808594 13.464844 9.855469 13.410156 C 9.878906 13.390625 9.894531 13.355469 9.894531 13.339844 C 9.894531 13.328125 9.917969 13.292969 9.945312 13.269531 C 9.96875 13.246094 10.027344 13.171875 10.070312 13.105469 C 10.109375 13.039062 10.15625 12.988281 10.164062 12.988281 C 10.175781 12.988281 10.238281 12.9375 10.296875 12.878906 C 10.363281 12.816406 10.460938 12.726562 10.519531 12.679688 C 10.660156 12.566406 11.242188 12.265625 11.324219 12.265625 C 11.363281 12.265625 11.414062 12.253906 11.445312 12.238281 C 11.476562 12.21875 11.5625 12.199219 11.636719 12.1875 L 11.773438 12.171875 L 11.800781 11.914062 C 11.835938 11.582031 11.867188 11.542969 12.089844 11.550781 C 12.238281 11.558594 12.253906 11.566406 12.300781 11.644531 Z M 12.300781 11.644531 "/>
<path style=" stroke:none;fill-rule:nonzero;fill:#ffffff;fill-opacity:1;" d="M 6.613281 12.847656 C 6.613281 12.863281 6.648438 12.894531 6.6875 12.917969 C 6.765625 12.957031 6.828125 13.058594 6.828125 13.144531 C 6.828125 13.1875 6.957031 13.308594 7.003906 13.308594 C 7.015625 13.308594 7.070312 13.355469 7.128906 13.414062 C 7.1875 13.46875 7.253906 13.523438 7.28125 13.535156 C 7.308594 13.542969 7.332031 13.558594 7.332031 13.574219 C 7.332031 13.609375 7.5 13.703125 7.539062 13.6875 C 7.585938 13.667969 7.585938 13.585938 7.535156 13.5 C 7.515625 13.457031 7.441406 13.308594 7.375 13.164062 C 7.277344 12.96875 7.226562 12.894531 7.175781 12.875 C 7.070312 12.835938 6.613281 12.8125 6.613281 12.847656 Z M 6.613281 12.847656 "/>
<path style=" stroke:none;fill-rule:nonzero;fill:#ffffff;fill-opacity:1;" d="M 10.867188 16.761719 C 10.785156 16.839844 10.777344 16.960938 10.855469 17.070312 C 10.929688 17.171875 11.066406 17.175781 11.160156 17.078125 C 11.355469 16.867188 11.066406 16.558594 10.867188 16.761719 Z M 10.867188 16.761719 "/>
<path style=" stroke:none;fill-rule:nonzero;fill:#ffffff;fill-opacity:1;" d="M 12.96875 17.167969 C 12.914062 17.207031 12.851562 17.320312 12.851562 17.390625 C 12.851562 17.5 12.972656 17.625 13.078125 17.625 C 13.191406 17.625 13.257812 17.550781 13.273438 17.40625 C 13.289062 17.257812 13.210938 17.148438 13.085938 17.148438 C 13.039062 17.148438 12.988281 17.15625 12.96875 17.167969 Z M 12.96875 17.167969 "/>
<path style=" stroke:none;fill-rule:nonzero;fill:#ffffff;fill-opacity:1;" d="M 15.058594 16.695312 C 14.976562 16.742188 14.933594 16.890625 14.933594 17.128906 C 14.933594 17.253906 14.941406 17.390625 14.949219 17.433594 C 14.988281 17.621094 15.164062 17.683594 15.28125 17.558594 C 15.34375 17.492188 15.347656 17.472656 15.347656 17.148438 C 15.347656 16.820312 15.34375 16.800781 15.28125 16.734375 C 15.214844 16.664062 15.136719 16.652344 15.058594 16.695312 Z M 15.058594 16.695312 "/>
<path style=" stroke:none;fill-rule:nonzero;fill:#ffffff;fill-opacity:1;" d="M 18.046875 4.078125 C 17.871094 4.269531 17.386719 4.878906 17.386719 4.917969 C 17.386719 4.9375 17.417969 4.980469 17.457031 5.015625 L 17.523438 5.078125 L 17.636719 4.960938 C 17.871094 4.71875 17.835938 4.71875 18.011719 4.925781 C 18.097656 5.027344 18.179688 5.113281 18.199219 5.125 C 18.214844 5.132812 18.261719 5.113281 18.304688 5.078125 L 18.382812 5.019531 L 18.332031 4.941406 C 18.308594 4.902344 18.234375 4.816406 18.175781 4.753906 C 18.113281 4.6875 18.058594 4.617188 18.050781 4.59375 C 18.03125 4.535156 18.128906 4.398438 18.1875 4.398438 C 18.230469 4.398438 18.367188 4.542969 18.59375 4.808594 L 18.652344 4.882812 L 18.753906 4.796875 L 18.855469 4.714844 L 18.753906 4.589844 C 18.703125 4.523438 18.546875 4.351562 18.410156 4.214844 L 18.164062 3.960938 Z M 18.046875 4.078125 "/>
<path style=" stroke:none;fill-rule:nonzero;fill:#ffffff;fill-opacity:1;" d="M 6.03125 4.148438 C 5.984375 4.1875 5.945312 4.234375 5.945312 4.253906 C 5.945312 4.273438 5.996094 4.347656 6.054688 4.414062 C 6.113281 4.480469 6.160156 4.546875 6.160156 4.558594 C 6.160156 4.59375 5.863281 4.878906 5.832031 4.878906 C 5.820312 4.878906 5.746094 4.824219 5.675781 4.757812 L 5.542969 4.632812 L 5.449219 4.722656 C 5.398438 4.769531 5.363281 4.828125 5.367188 4.84375 C 5.375 4.882812 6.09375 5.574219 6.125 5.574219 C 6.136719 5.574219 6.183594 5.539062 6.222656 5.496094 L 6.300781 5.414062 L 6.1875 5.28125 C 6.125 5.207031 6.0625 5.148438 6.054688 5.148438 C 6.039062 5.148438 6.019531 5.121094 6.011719 5.089844 C 5.996094 5.046875 6.023438 5.003906 6.136719 4.890625 C 6.214844 4.8125 6.296875 4.746094 6.320312 4.75 C 6.339844 4.75 6.417969 4.820312 6.492188 4.910156 C 6.5625 4.996094 6.632812 5.066406 6.652344 5.066406 C 6.6875 5.066406 6.828125 4.929688 6.828125 4.890625 C 6.828125 4.878906 6.78125 4.820312 6.726562 4.757812 C 6.671875 4.699219 6.535156 4.535156 6.414062 4.390625 C 6.15625 4.070312 6.136719 4.058594 6.03125 4.148438 Z M 6.03125 4.148438 "/>
<path style=" stroke:none;fill-rule:nonzero;fill:#ffffff;fill-opacity:1;" d="M 19.136719 5.390625 C 18.988281 5.527344 18.796875 5.699219 18.710938 5.769531 C 18.628906 5.84375 18.558594 5.917969 18.558594 5.9375 C 18.558594 5.988281 18.640625 6.105469 18.675781 6.105469 C 18.691406 6.105469 18.765625 6.054688 18.835938 5.984375 C 18.910156 5.917969 18.984375 5.871094 19.003906 5.878906 C 19.023438 5.886719 19.082031 5.957031 19.132812 6.039062 C 19.257812 6.230469 19.3125 6.265625 19.492188 6.265625 C 19.710938 6.265625 19.84375 6.164062 19.910156 5.945312 C 19.960938 5.773438 19.871094 5.585938 19.609375 5.308594 C 19.542969 5.238281 19.492188 5.179688 19.492188 5.164062 C 19.492188 5.105469 19.382812 5.171875 19.136719 5.390625 Z M 19.511719 5.550781 C 19.542969 5.585938 19.585938 5.652344 19.613281 5.703125 C 19.652344 5.78125 19.652344 5.800781 19.625 5.859375 C 19.585938 5.933594 19.484375 5.980469 19.414062 5.960938 C 19.355469 5.941406 19.226562 5.761719 19.226562 5.703125 C 19.226562 5.660156 19.402344 5.492188 19.441406 5.492188 C 19.449219 5.492188 19.484375 5.519531 19.511719 5.550781 Z M 19.511719 5.550781 "/>
<path style=" stroke:none;fill-rule:nonzero;fill:#ffffff;fill-opacity:1;" d="M 4.886719 5.382812 C 4.691406 5.523438 4.535156 5.789062 4.535156 5.972656 C 4.535156 6.324219 4.933594 6.632812 5.257812 6.535156 C 5.480469 6.46875 5.632812 6.300781 5.667969 6.085938 C 5.683594 5.992188 5.695312 5.976562 5.734375 5.988281 C 5.765625 5.996094 5.800781 5.976562 5.839844 5.929688 L 5.898438 5.851562 L 5.6875 5.660156 C 5.574219 5.554688 5.46875 5.472656 5.453125 5.476562 C 5.414062 5.488281 5.148438 5.839844 5.148438 5.882812 C 5.148438 5.902344 5.175781 5.9375 5.214844 5.953125 C 5.273438 5.980469 5.289062 5.972656 5.355469 5.894531 C 5.449219 5.78125 5.492188 5.804688 5.492188 5.96875 C 5.492188 6.089844 5.484375 6.109375 5.386719 6.199219 C 5.214844 6.351562 5.023438 6.324219 4.855469 6.109375 C 4.761719 5.992188 4.75 5.882812 4.8125 5.761719 C 4.871094 5.652344 5.015625 5.546875 5.113281 5.546875 C 5.171875 5.546875 5.210938 5.523438 5.25 5.46875 C 5.347656 5.335938 5.328125 5.308594 5.152344 5.308594 C 5.019531 5.308594 4.976562 5.320312 4.886719 5.382812 Z M 4.886719 5.382812 "/>
<path style=" stroke:none;fill-rule:nonzero;fill:#ffffff;fill-opacity:1;" d="M 20.039062 6.339844 C 19.910156 6.425781 19.902344 6.433594 19.582031 6.625 C 19.359375 6.761719 19.332031 6.785156 19.332031 6.851562 C 19.332031 6.894531 19.347656 6.9375 19.363281 6.945312 C 19.375 6.957031 19.402344 6.992188 19.414062 7.019531 C 19.429688 7.054688 19.464844 7.113281 19.492188 7.160156 C 19.519531 7.203125 19.574219 7.308594 19.617188 7.386719 C 19.695312 7.550781 19.726562 7.578125 19.800781 7.558594 C 19.910156 7.523438 19.910156 7.515625 19.660156 7.070312 L 19.597656 6.953125 L 19.671875 6.890625 C 19.800781 6.78125 19.816406 6.792969 20.011719 7.167969 C 20.074219 7.289062 20.097656 7.308594 20.164062 7.308594 C 20.207031 7.308594 20.246094 7.289062 20.257812 7.269531 C 20.265625 7.246094 20.214844 7.125 20.148438 6.996094 C 20.082031 6.867188 20.027344 6.742188 20.027344 6.726562 C 20.027344 6.707031 20.054688 6.675781 20.09375 6.660156 C 20.148438 6.636719 20.171875 6.636719 20.199219 6.667969 C 20.242188 6.710938 20.414062 7.019531 20.457031 7.125 C 20.492188 7.214844 20.550781 7.238281 20.628906 7.1875 C 20.691406 7.144531 20.710938 7.082031 20.667969 7.054688 C 20.65625 7.046875 20.617188 6.984375 20.585938 6.910156 C 20.550781 6.84375 20.472656 6.699219 20.40625 6.59375 C 20.34375 6.484375 20.292969 6.386719 20.292969 6.375 C 20.292969 6.347656 20.203125 6.265625 20.171875 6.265625 C 20.15625 6.265625 20.097656 6.300781 20.039062 6.339844 Z M 20.039062 6.339844 "/>
<path style=" stroke:none;fill-rule:nonzero;fill:#ffffff;fill-opacity:1;" d="M 4.109375 6.503906 C 4.078125 6.546875 4.054688 6.601562 4.054688 6.617188 C 4.054688 6.660156 4.117188 6.726562 4.1875 6.757812 C 4.207031 6.769531 4.25 6.789062 4.28125 6.808594 C 4.308594 6.828125 4.402344 6.882812 4.492188 6.933594 C 4.574219 6.984375 4.675781 7.046875 4.71875 7.070312 C 4.894531 7.1875 4.9375 7.207031 4.976562 7.171875 C 4.996094 7.15625 5.011719 7.125 5.011719 7.105469 C 5.011719 7.085938 5.027344 7.066406 5.046875 7.0625 C 5.0625 7.054688 5.070312 7.03125 5.058594 7.007812 C 5.042969 6.960938 4.902344 6.863281 4.457031 6.589844 C 4.351562 6.523438 4.257812 6.464844 4.25 6.449219 C 4.222656 6.40625 4.164062 6.425781 4.109375 6.503906 Z M 4.109375 6.503906 "/>
<path style=" stroke:none;fill-rule:nonzero;fill:#ffffff;fill-opacity:1;" d="M 3.8125 7.046875 C 3.796875 7.078125 3.773438 7.125 3.753906 7.152344 C 3.710938 7.210938 3.746094 7.25 3.917969 7.332031 C 4.0625 7.40625 4.085938 7.460938 4.011719 7.558594 C 3.992188 7.585938 3.972656 7.628906 3.972656 7.652344 C 3.972656 7.675781 3.945312 7.726562 3.910156 7.769531 L 3.851562 7.84375 L 3.714844 7.773438 C 3.636719 7.734375 3.5625 7.707031 3.550781 7.707031 C 3.535156 7.707031 3.5 7.753906 3.472656 7.8125 C 3.421875 7.910156 3.417969 7.917969 3.460938 7.953125 C 3.484375 7.976562 3.574219 8.019531 3.652344 8.054688 C 3.734375 8.085938 3.835938 8.128906 3.878906 8.148438 C 3.925781 8.164062 4.003906 8.199219 4.054688 8.222656 C 4.105469 8.242188 4.191406 8.28125 4.246094 8.304688 C 4.394531 8.367188 4.421875 8.355469 4.449219 8.246094 C 4.476562 8.15625 4.472656 8.140625 4.417969 8.101562 C 4.386719 8.074219 4.335938 8.046875 4.308594 8.039062 C 4.230469 8.015625 4.078125 7.9375 4.078125 7.921875 C 4.078125 7.890625 4.152344 7.714844 4.195312 7.632812 C 4.222656 7.585938 4.261719 7.546875 4.285156 7.546875 C 4.339844 7.546875 4.550781 7.648438 4.574219 7.683594 C 4.609375 7.742188 4.695312 7.703125 4.742188 7.609375 C 4.785156 7.515625 4.785156 7.511719 4.722656 7.46875 C 4.644531 7.414062 4.398438 7.277344 4.226562 7.1875 C 4.15625 7.148438 4.046875 7.089844 3.988281 7.054688 C 3.851562 6.972656 3.84375 6.972656 3.8125 7.046875 Z M 3.8125 7.046875 "/>
<path style=" stroke:none;fill-rule:nonzero;fill:#ffffff;fill-opacity:1;" d="M 20.734375 7.585938 C 20.640625 7.625 20.5 7.675781 20.386719 7.707031 C 20.191406 7.761719 20.023438 7.828125 19.988281 7.867188 C 19.953125 7.902344 19.953125 7.921875 19.988281 7.992188 C 20.023438 8.078125 20.109375 8.113281 20.144531 8.054688 C 20.167969 8.019531 20.371094 7.996094 20.425781 8.027344 C 20.492188 8.0625 20.476562 8.105469 20.328125 8.296875 C 20.265625 8.382812 20.214844 8.476562 20.214844 8.515625 C 20.214844 8.613281 20.257812 8.71875 20.300781 8.71875 C 20.320312 8.71875 20.417969 8.605469 20.519531 8.464844 C 20.625 8.328125 20.71875 8.214844 20.734375 8.214844 C 20.753906 8.214844 20.8125 8.242188 20.863281 8.28125 C 20.917969 8.316406 20.96875 8.347656 20.976562 8.347656 C 20.980469 8.347656 21.039062 8.382812 21.097656 8.425781 C 21.246094 8.535156 21.289062 8.535156 21.265625 8.417969 C 21.257812 8.375 21.234375 8.3125 21.222656 8.285156 C 21.195312 8.234375 20.96875 8.078125 20.792969 7.992188 C 20.683594 7.9375 20.660156 7.867188 20.746094 7.867188 C 20.777344 7.867188 20.847656 7.847656 20.90625 7.824219 C 21.023438 7.777344 21.046875 7.710938 20.96875 7.605469 C 20.925781 7.539062 20.851562 7.535156 20.734375 7.585938 Z M 20.734375 7.585938 "/>
<path style=" stroke:none;fill-rule:nonzero;fill:#ffffff;fill-opacity:1;" d="M 21.199219 8.945312 C 21.125 8.972656 20.667969 9.117188 20.515625 9.164062 C 20.46875 9.171875 20.472656 9.28125 20.515625 9.339844 C 20.558594 9.398438 20.640625 9.398438 20.800781 9.347656 C 20.867188 9.328125 20.992188 9.289062 21.078125 9.265625 C 21.476562 9.15625 21.507812 9.136719 21.5 9.054688 C 21.496094 9.007812 21.484375 8.957031 21.480469 8.9375 C 21.464844 8.894531 21.320312 8.898438 21.199219 8.945312 Z M 21.199219 8.945312 "/>
<path style=" stroke:none;fill-rule:nonzero;fill:#ffffff;fill-opacity:1;" d="M 3.132812 9.03125 C 2.964844 9.121094 2.910156 9.199219 2.835938 9.480469 C 2.769531 9.738281 2.753906 9.890625 2.785156 9.914062 C 2.8125 9.9375 3.03125 9.988281 3.359375 10.054688 C 3.8125 10.144531 3.855469 10.136719 3.878906 9.980469 C 3.886719 9.925781 3.90625 9.828125 3.925781 9.761719 C 3.980469 9.546875 3.980469 9.484375 3.925781 9.367188 C 3.863281 9.230469 3.691406 9.09375 3.496094 9.03125 C 3.324219 8.976562 3.238281 8.976562 3.132812 9.03125 Z M 3.457031 9.292969 C 3.53125 9.316406 3.621094 9.367188 3.667969 9.414062 C 3.734375 9.484375 3.742188 9.515625 3.738281 9.617188 C 3.726562 9.855469 3.691406 9.890625 3.503906 9.828125 C 3.4375 9.804688 3.359375 9.785156 3.332031 9.785156 C 3.300781 9.785156 3.21875 9.769531 3.144531 9.742188 C 3.03125 9.707031 3.011719 9.691406 3.011719 9.625 C 3.011719 9.496094 3.105469 9.316406 3.191406 9.285156 C 3.292969 9.246094 3.304688 9.246094 3.457031 9.292969 Z M 3.457031 9.292969 "/>
<path style=" stroke:none;fill-rule:nonzero;fill:#ffffff;fill-opacity:1;" d="M 21.507812 9.519531 C 21.464844 9.53125 21.332031 9.5625 21.214844 9.585938 C 21.097656 9.613281 20.941406 9.648438 20.867188 9.667969 C 20.792969 9.6875 20.710938 9.710938 20.679688 9.714844 C 20.636719 9.71875 20.628906 9.738281 20.632812 9.8125 C 20.636719 9.863281 20.65625 9.914062 20.675781 9.925781 C 20.710938 9.949219 20.910156 9.929688 21.007812 9.890625 C 21.097656 9.855469 21.28125 9.863281 21.28125 9.898438 C 21.28125 9.914062 21.164062 10.039062 21.027344 10.167969 C 20.78125 10.398438 20.773438 10.40625 20.773438 10.523438 C 20.773438 10.609375 20.785156 10.644531 20.816406 10.660156 C 20.839844 10.667969 20.980469 10.65625 21.128906 10.628906 C 21.277344 10.605469 21.476562 10.585938 21.574219 10.585938 C 21.796875 10.585938 21.820312 10.570312 21.808594 10.425781 C 21.800781 10.289062 21.835938 10.296875 21.394531 10.335938 C 21.265625 10.347656 21.171875 10.34375 21.171875 10.332031 C 21.171875 10.316406 21.28125 10.199219 21.414062 10.070312 C 21.683594 9.804688 21.710938 9.769531 21.679688 9.695312 C 21.667969 9.664062 21.652344 9.609375 21.644531 9.566406 C 21.632812 9.523438 21.617188 9.492188 21.605469 9.496094 C 21.59375 9.5 21.550781 9.507812 21.507812 9.519531 Z M 21.507812 9.519531 "/>
<path style=" stroke:none;fill-rule:nonzero;fill:#ffffff;fill-opacity:1;" d="M 2.667969 10.371094 C 2.652344 10.402344 2.625 10.574219 2.613281 10.753906 C 2.601562 10.933594 2.582031 11.105469 2.570312 11.136719 C 2.558594 11.179688 2.570312 11.203125 2.605469 11.222656 C 2.660156 11.25 3.574219 11.324219 3.632812 11.300781 C 3.683594 11.28125 3.730469 11.011719 3.738281 10.691406 L 3.746094 10.441406 L 3.667969 10.441406 C 3.585938 10.441406 3.589844 10.429688 3.503906 10.921875 L 3.480469 11.054688 L 3.375 11.050781 C 3.21875 11.046875 3.214844 11.019531 3.269531 10.566406 C 3.28125 10.464844 3.277344 10.453125 3.210938 10.4375 C 3.109375 10.410156 3.078125 10.464844 3.046875 10.734375 C 3.03125 10.863281 3.007812 10.972656 2.996094 10.988281 C 2.980469 11.015625 2.828125 10.996094 2.792969 10.960938 C 2.78125 10.953125 2.792969 10.871094 2.8125 10.777344 C 2.835938 10.6875 2.851562 10.550781 2.847656 10.476562 C 2.839844 10.34375 2.835938 10.332031 2.769531 10.324219 C 2.71875 10.320312 2.6875 10.332031 2.667969 10.371094 Z M 2.667969 10.371094 "/>
<path style=" stroke:none;fill-rule:nonzero;fill:#ffffff;fill-opacity:1;" d="M 21.238281 10.945312 C 21.074219 10.996094 21.019531 11.035156 20.933594 11.152344 C 20.863281 11.25 20.851562 11.28125 20.851562 11.460938 C 20.851562 11.617188 20.863281 11.679688 20.910156 11.753906 C 20.964844 11.839844 20.964844 11.851562 20.925781 11.878906 C 20.863281 11.925781 20.867188 12.046875 20.929688 12.078125 C 20.960938 12.09375 21.089844 12.105469 21.222656 12.105469 L 21.457031 12.105469 L 21.472656 12.003906 C 21.476562 11.953125 21.476562 11.835938 21.46875 11.746094 C 21.453125 11.589844 21.449219 11.585938 21.367188 11.578125 C 21.277344 11.570312 21.269531 11.582031 21.277344 11.71875 C 21.28125 11.75 21.269531 11.789062 21.257812 11.8125 C 21.238281 11.839844 21.222656 11.835938 21.164062 11.800781 C 21.054688 11.726562 21.003906 11.515625 21.070312 11.382812 C 21.121094 11.265625 21.222656 11.214844 21.40625 11.214844 C 21.546875 11.214844 21.585938 11.226562 21.644531 11.28125 C 21.808594 11.4375 21.828125 11.695312 21.6875 11.800781 C 21.664062 11.816406 21.648438 11.882812 21.644531 11.960938 C 21.640625 12.078125 21.644531 12.09375 21.703125 12.101562 C 21.910156 12.128906 22.046875 11.664062 21.929688 11.316406 C 21.835938 11.023438 21.519531 10.851562 21.238281 10.945312 Z M 21.238281 10.945312 "/>
<path style=" stroke:none;fill-rule:nonzero;fill:#ffffff;fill-opacity:1;" d="M 2.550781 11.5625 C 2.527344 11.585938 2.535156 12.414062 2.558594 12.507812 C 2.574219 12.578125 2.675781 12.613281 2.726562 12.5625 C 2.742188 12.546875 2.757812 12.457031 2.757812 12.367188 L 2.761719 12.199219 L 2.960938 12.183594 C 3.070312 12.171875 3.265625 12.164062 3.390625 12.164062 C 3.617188 12.160156 3.625 12.15625 3.644531 12.097656 C 3.652344 12.0625 3.652344 12.003906 3.648438 11.972656 C 3.640625 11.910156 3.636719 11.910156 3.207031 11.917969 C 2.71875 11.925781 2.753906 11.945312 2.742188 11.679688 C 2.734375 11.566406 2.726562 11.558594 2.652344 11.550781 C 2.609375 11.546875 2.5625 11.550781 2.550781 11.5625 Z M 2.550781 11.5625 "/>
<path style=" stroke:none;fill-rule:nonzero;fill:#ffffff;fill-opacity:1;" d="M 3.414062 12.785156 C 3.316406 12.835938 3.207031 12.894531 3.160156 12.917969 C 2.898438 13.050781 2.660156 13.195312 2.632812 13.238281 C 2.601562 13.292969 2.632812 13.484375 2.675781 13.511719 C 2.71875 13.539062 2.953125 13.59375 3.1875 13.625 C 3.289062 13.640625 3.433594 13.664062 3.507812 13.675781 C 3.582031 13.691406 3.679688 13.703125 3.726562 13.703125 C 3.816406 13.707031 3.816406 13.707031 3.808594 13.59375 C 3.800781 13.484375 3.796875 13.480469 3.699219 13.472656 C 3.578125 13.460938 3.523438 13.375 3.5 13.160156 L 3.484375 13.019531 L 3.589844 12.96875 C 3.683594 12.925781 3.691406 12.910156 3.691406 12.8125 C 3.691406 12.671875 3.640625 12.667969 3.414062 12.785156 Z M 3.328125 13.273438 L 3.335938 13.386719 L 3.195312 13.386719 C 3.015625 13.386719 2.96875 13.359375 3.011719 13.28125 C 3.03125 13.253906 3.0625 13.226562 3.089844 13.226562 C 3.117188 13.226562 3.15625 13.207031 3.171875 13.1875 C 3.191406 13.164062 3.234375 13.148438 3.265625 13.152344 C 3.308594 13.15625 3.324219 13.179688 3.328125 13.273438 Z M 3.328125 13.273438 "/>
<path style=" stroke:none;fill-rule:nonzero;fill:#ffffff;fill-opacity:1;" d="M 20.921875 13.195312 C 20.890625 13.21875 20.828125 13.285156 20.785156 13.34375 C 20.71875 13.433594 20.710938 13.472656 20.699219 13.675781 L 20.6875 13.910156 L 20.785156 14.007812 C 20.84375 14.0625 20.910156 14.105469 20.945312 14.105469 C 20.972656 14.105469 21.046875 14.121094 21.105469 14.144531 C 21.414062 14.25 21.496094 14.269531 21.566406 14.261719 C 21.632812 14.253906 21.640625 14.238281 21.648438 14.152344 C 21.660156 14.027344 21.625 13.980469 21.496094 13.957031 C 21.441406 13.949219 21.339844 13.925781 21.265625 13.902344 C 21.195312 13.886719 21.101562 13.863281 21.058594 13.851562 C 20.960938 13.835938 20.878906 13.75 20.878906 13.667969 C 20.878906 13.503906 21.027344 13.363281 21.152344 13.410156 C 21.1875 13.425781 21.28125 13.441406 21.359375 13.449219 C 21.441406 13.460938 21.5625 13.484375 21.632812 13.5 C 21.785156 13.535156 21.804688 13.519531 21.820312 13.359375 L 21.828125 13.238281 L 21.691406 13.222656 C 21.621094 13.210938 21.488281 13.191406 21.398438 13.175781 C 21.164062 13.132812 20.984375 13.140625 20.921875 13.195312 Z M 20.921875 13.195312 "/>
<path style=" stroke:none;fill-rule:nonzero;fill:#ffffff;fill-opacity:1;" d="M 3.679688 14.011719 C 3.441406 14.082031 3.128906 14.164062 3.007812 14.191406 C 2.9375 14.207031 2.863281 14.238281 2.839844 14.265625 C 2.800781 14.308594 2.800781 14.324219 2.835938 14.414062 C 2.882812 14.515625 2.878906 14.515625 3.054688 14.457031 C 3.097656 14.441406 3.207031 14.410156 3.292969 14.386719 C 3.929688 14.207031 3.945312 14.195312 3.902344 14.03125 C 3.886719 13.964844 3.855469 13.964844 3.679688 14.011719 Z M 3.679688 14.011719 "/>
<path style=" stroke:none;fill-rule:nonzero;fill:#ffffff;fill-opacity:1;" d="M 20.496094 14.390625 C 20.472656 14.410156 20.453125 14.460938 20.453125 14.5 C 20.453125 14.5625 20.472656 14.582031 20.582031 14.621094 C 20.808594 14.710938 20.894531 14.742188 20.941406 14.757812 C 20.988281 14.773438 21.003906 14.839844 20.960938 14.863281 C 20.9375 14.882812 20.582031 14.957031 20.394531 14.984375 C 20.324219 14.996094 20.261719 15.007812 20.257812 15.015625 C 20.238281 15.03125 20.160156 15.230469 20.160156 15.25 C 20.160156 15.261719 20.230469 15.296875 20.316406 15.332031 C 20.398438 15.367188 20.484375 15.40625 20.507812 15.425781 C 20.542969 15.453125 20.761719 15.5625 20.910156 15.625 C 20.945312 15.640625 20.992188 15.667969 21.019531 15.683594 C 21.070312 15.722656 21.136719 15.675781 21.175781 15.582031 C 21.207031 15.496094 21.183594 15.449219 21.085938 15.40625 C 20.832031 15.285156 20.691406 15.226562 20.667969 15.226562 C 20.652344 15.226562 20.640625 15.210938 20.640625 15.191406 C 20.640625 15.160156 20.800781 15.109375 21.046875 15.066406 C 21.113281 15.054688 21.195312 15.03125 21.222656 15.015625 C 21.253906 15 21.300781 14.988281 21.332031 14.988281 C 21.367188 14.988281 21.398438 14.953125 21.441406 14.863281 C 21.46875 14.792969 21.492188 14.730469 21.492188 14.71875 C 21.492188 14.6875 21.34375 14.609375 21.238281 14.585938 C 21.199219 14.574219 21.09375 14.539062 21.011719 14.507812 C 20.933594 14.476562 20.824219 14.441406 20.773438 14.429688 C 20.722656 14.417969 20.652344 14.394531 20.621094 14.378906 C 20.546875 14.339844 20.546875 14.339844 20.496094 14.390625 Z M 20.496094 14.390625 "/>
<path style=" stroke:none;fill-rule:nonzero;fill:#ffffff;fill-opacity:1;" d="M 3.933594 14.453125 C 3.835938 14.492188 3.8125 14.542969 3.851562 14.625 C 3.875 14.667969 3.894531 14.71875 3.894531 14.742188 C 3.894531 14.769531 3.910156 14.820312 3.933594 14.863281 C 3.988281 14.964844 3.984375 15.039062 3.929688 15.054688 C 3.902344 15.0625 3.84375 15.085938 3.800781 15.105469 C 3.757812 15.125 3.671875 15.15625 3.613281 15.179688 C 3.554688 15.203125 3.457031 15.238281 3.398438 15.261719 C 3.339844 15.285156 3.265625 15.3125 3.234375 15.320312 C 3.1875 15.332031 3.171875 15.355469 3.171875 15.425781 C 3.171875 15.542969 3.257812 15.617188 3.339844 15.582031 C 3.589844 15.464844 3.71875 15.410156 3.867188 15.347656 C 3.960938 15.308594 4.054688 15.265625 4.066406 15.253906 C 4.082031 15.242188 4.121094 15.226562 4.15625 15.222656 C 4.246094 15.210938 4.285156 15.140625 4.246094 15.0625 C 4.230469 15.027344 4.199219 14.945312 4.171875 14.878906 C 4.148438 14.8125 4.113281 14.71875 4.089844 14.671875 C 4.070312 14.625 4.054688 14.5625 4.054688 14.535156 C 4.054688 14.464844 3.996094 14.429688 3.933594 14.453125 Z M 3.933594 14.453125 "/>
<path style=" stroke:none;fill-rule:nonzero;fill:#ffffff;fill-opacity:1;" d="M 4.265625 15.546875 C 4.1875 15.589844 3.988281 15.6875 3.828125 15.765625 C 3.667969 15.84375 3.523438 15.929688 3.511719 15.953125 C 3.476562 16.003906 3.535156 16.148438 3.59375 16.171875 C 3.617188 16.179688 3.652344 16.171875 3.675781 16.152344 C 3.703125 16.128906 3.773438 16.089844 3.839844 16.054688 C 3.90625 16.023438 4.011719 15.964844 4.078125 15.929688 C 4.148438 15.890625 4.269531 15.824219 4.355469 15.78125 C 4.4375 15.734375 4.507812 15.683594 4.507812 15.660156 C 4.507812 15.625 4.433594 15.464844 4.417969 15.46875 C 4.414062 15.46875 4.347656 15.503906 4.265625 15.546875 Z M 4.265625 15.546875 "/>
<path style=" stroke:none;fill-rule:nonzero;fill:#ffffff;fill-opacity:1;" d="M 19.9375 15.667969 C 19.882812 15.785156 19.902344 15.820312 20.085938 15.917969 C 20.148438 15.949219 20.238281 16 20.28125 16.027344 C 20.324219 16.054688 20.382812 16.089844 20.414062 16.105469 C 20.441406 16.121094 20.503906 16.15625 20.546875 16.1875 C 20.65625 16.257812 20.777344 16.320312 20.800781 16.320312 C 20.824219 16.320312 20.933594 16.121094 20.933594 16.078125 C 20.933594 16.066406 20.871094 16.027344 20.792969 15.988281 C 20.71875 15.953125 20.582031 15.878906 20.492188 15.828125 C 20.40625 15.777344 20.316406 15.726562 20.292969 15.714844 C 20.273438 15.707031 20.207031 15.667969 20.15625 15.632812 C 20.019531 15.550781 19.996094 15.558594 19.9375 15.667969 Z M 19.9375 15.667969 "/>
<path style=" stroke:none;fill-rule:nonzero;fill:#ffffff;fill-opacity:1;" d="M 4.179688 16.25 C 4.121094 16.292969 4.121094 16.355469 4.171875 16.398438 C 4.195312 16.417969 4.214844 16.449219 4.214844 16.464844 C 4.214844 16.480469 4.242188 16.539062 4.28125 16.59375 C 4.316406 16.644531 4.347656 16.703125 4.347656 16.71875 C 4.347656 16.761719 4.246094 16.851562 4.199219 16.851562 C 4.179688 16.851562 4.09375 16.738281 4.011719 16.601562 C 3.878906 16.371094 3.859375 16.347656 3.8125 16.375 C 3.78125 16.390625 3.75 16.421875 3.742188 16.445312 C 3.726562 16.488281 3.851562 16.75 4.011719 17.011719 C 4.171875 17.265625 4.132812 17.269531 4.558594 16.949219 C 4.765625 16.792969 4.953125 16.660156 4.972656 16.652344 C 5.03125 16.625 5.019531 16.523438 4.953125 16.457031 L 4.894531 16.402344 L 4.734375 16.507812 C 4.644531 16.566406 4.566406 16.613281 4.558594 16.613281 C 4.527344 16.613281 4.46875 16.535156 4.386719 16.378906 C 4.300781 16.21875 4.257812 16.191406 4.179688 16.25 Z M 4.179688 16.25 "/>
<path style=" stroke:none;fill-rule:nonzero;fill:#ffffff;fill-opacity:1;" d="M 19.46875 16.414062 C 19.386719 16.519531 19.398438 16.589844 19.527344 16.777344 C 19.59375 16.871094 19.652344 16.964844 19.660156 16.988281 C 19.671875 17.007812 19.703125 17.0625 19.734375 17.105469 C 19.761719 17.148438 19.792969 17.207031 19.804688 17.226562 C 19.902344 17.421875 19.988281 17.546875 20.019531 17.546875 C 20.039062 17.546875 20.054688 17.53125 20.054688 17.507812 C 20.054688 17.492188 20.070312 17.457031 20.09375 17.441406 C 20.179688 17.367188 20.128906 17.246094 19.847656 16.875 C 19.785156 16.792969 19.734375 16.710938 19.734375 16.695312 C 19.734375 16.652344 19.824219 16.660156 19.984375 16.710938 C 20.449219 16.855469 20.4375 16.855469 20.507812 16.738281 C 20.535156 16.691406 20.558594 16.640625 20.558594 16.621094 C 20.558594 16.585938 20.402344 16.535156 20.1875 16.507812 C 20.015625 16.484375 19.652344 16.398438 19.558594 16.355469 C 19.539062 16.347656 19.5 16.375 19.46875 16.414062 Z M 19.46875 16.414062 "/>
<path style=" stroke:none;fill-rule:nonzero;fill:#ffffff;fill-opacity:1;" d="M 18.882812 17.292969 C 18.820312 17.375 18.71875 17.5 18.652344 17.566406 C 18.476562 17.757812 18.457031 17.800781 18.53125 17.875 L 18.589844 17.933594 L 18.761719 17.746094 C 18.855469 17.644531 18.933594 17.550781 18.933594 17.542969 C 18.933594 17.53125 18.957031 17.507812 18.988281 17.492188 C 19.035156 17.464844 19.054688 17.472656 19.109375 17.523438 C 19.144531 17.554688 19.171875 17.609375 19.171875 17.636719 C 19.171875 17.667969 19.105469 17.769531 19.027344 17.867188 C 18.835938 18.09375 18.832031 18.105469 18.910156 18.164062 L 18.96875 18.21875 L 19.078125 18.101562 C 19.136719 18.039062 19.222656 17.9375 19.273438 17.886719 C 19.316406 17.832031 19.363281 17.785156 19.371094 17.785156 C 19.398438 17.785156 19.492188 17.894531 19.492188 17.921875 C 19.492188 17.953125 19.367188 18.121094 19.226562 18.273438 C 19.085938 18.429688 19.078125 18.449219 19.148438 18.523438 L 19.214844 18.589844 L 19.320312 18.472656 C 19.433594 18.347656 19.652344 18.078125 19.761719 17.929688 L 19.824219 17.835938 L 19.679688 17.699219 C 19.355469 17.402344 19.054688 17.148438 19.023438 17.148438 C 19.007812 17.148438 18.945312 17.214844 18.882812 17.292969 Z M 18.882812 17.292969 "/>
<path style=" stroke:none;fill-rule:nonzero;fill:#ffffff;fill-opacity:1;" d="M 4.804688 17.222656 C 4.761719 17.257812 4.75 17.28125 4.761719 17.320312 C 4.785156 17.375 4.960938 17.609375 4.996094 17.621094 C 5.070312 17.65625 4.953125 17.863281 4.871094 17.832031 C 4.851562 17.824219 4.761719 17.71875 4.675781 17.601562 C 4.589844 17.484375 4.5 17.390625 4.476562 17.386719 C 4.4375 17.386719 4.347656 17.464844 4.347656 17.5 C 4.347656 17.519531 4.6875 17.96875 4.800781 18.097656 C 4.84375 18.148438 4.894531 18.1875 4.917969 18.1875 C 4.9375 18.1875 5.128906 18.019531 5.339844 17.8125 L 5.71875 17.4375 L 5.632812 17.355469 L 5.542969 17.277344 L 5.410156 17.390625 C 5.335938 17.457031 5.261719 17.515625 5.242188 17.53125 C 5.203125 17.558594 5.132812 17.5 5.003906 17.316406 C 4.902344 17.167969 4.886719 17.160156 4.804688 17.222656 Z M 4.804688 17.222656 "/>
<path style=" stroke:none;fill-rule:nonzero;fill:#ffffff;fill-opacity:1;" d="M 5.871094 17.710938 C 5.847656 17.742188 5.785156 17.890625 5.6875 18.148438 C 5.664062 18.207031 5.632812 18.289062 5.613281 18.332031 C 5.546875 18.484375 5.496094 18.625 5.480469 18.703125 C 5.464844 18.769531 5.480469 18.796875 5.5625 18.882812 C 5.617188 18.941406 5.679688 18.988281 5.695312 18.988281 C 5.730469 18.988281 6.039062 18.828125 6.171875 18.742188 C 6.21875 18.71875 6.28125 18.683594 6.316406 18.667969 C 6.429688 18.617188 6.667969 18.453125 6.683594 18.414062 C 6.703125 18.363281 6.59375 18.269531 6.515625 18.265625 C 6.488281 18.265625 6.441406 18.285156 6.410156 18.308594 C 6.335938 18.363281 6.320312 18.355469 6.160156 18.214844 L 6.015625 18.089844 L 6.046875 17.957031 C 6.074219 17.832031 6.070312 17.824219 6.003906 17.753906 C 5.929688 17.671875 5.910156 17.667969 5.871094 17.710938 Z M 6.070312 18.421875 C 6.105469 18.472656 6.097656 18.480469 5.980469 18.558594 C 5.914062 18.601562 5.847656 18.640625 5.835938 18.640625 C 5.792969 18.640625 5.8125 18.484375 5.871094 18.390625 C 5.921875 18.300781 5.929688 18.296875 5.980469 18.332031 C 6.007812 18.351562 6.046875 18.390625 6.070312 18.421875 Z M 6.070312 18.421875 "/>
<path style=" stroke:none;fill-rule:nonzero;fill:#ffffff;fill-opacity:1;" d="M 18.164062 18.105469 C 18.121094 18.148438 18.078125 18.195312 18.078125 18.207031 C 18.078125 18.214844 18.128906 18.28125 18.1875 18.347656 C 18.246094 18.414062 18.292969 18.488281 18.292969 18.511719 C 18.292969 18.589844 18.082031 18.773438 17.996094 18.773438 C 17.96875 18.773438 17.921875 18.746094 17.894531 18.710938 C 17.871094 18.679688 17.816406 18.617188 17.78125 18.574219 L 17.714844 18.5 L 17.632812 18.558594 C 17.53125 18.632812 17.527344 18.664062 17.609375 18.753906 C 17.640625 18.792969 17.6875 18.851562 17.714844 18.890625 C 17.738281 18.929688 17.792969 18.972656 17.835938 18.992188 C 17.894531 19.019531 17.902344 19.039062 17.898438 19.125 C 17.886719 19.28125 17.96875 19.394531 18.140625 19.449219 C 18.226562 19.476562 18.40625 19.375 18.609375 19.183594 C 18.71875 19.082031 18.835938 18.976562 18.871094 18.945312 C 18.953125 18.878906 18.949219 18.867188 18.847656 18.75 C 18.761719 18.652344 18.332031 18.128906 18.28125 18.0625 C 18.257812 18.03125 18.234375 18.039062 18.164062 18.105469 Z M 18.515625 18.777344 C 18.625 18.859375 18.609375 18.9375 18.457031 19.0625 C 18.320312 19.179688 18.28125 19.195312 18.195312 19.164062 C 18.148438 19.148438 18.132812 19.121094 18.132812 19.054688 C 18.132812 18.980469 18.15625 18.945312 18.273438 18.84375 C 18.347656 18.777344 18.421875 18.71875 18.429688 18.71875 C 18.4375 18.71875 18.476562 18.742188 18.515625 18.777344 Z M 18.515625 18.777344 "/>
<path style=" stroke:none;fill-rule:nonzero;fill:#ffffff;fill-opacity:1;" d="M 7.289062 18.910156 C 7.207031 19.019531 7.257812 19.09375 7.554688 19.265625 C 7.625 19.304688 7.691406 19.355469 7.703125 19.382812 C 7.730469 19.429688 7.640625 19.601562 7.585938 19.601562 C 7.566406 19.601562 7.457031 19.539062 7.347656 19.464844 C 7.238281 19.390625 7.140625 19.332031 7.128906 19.332031 C 7.101562 19.332031 7.042969 19.425781 7.039062 19.472656 C 7.039062 19.5 7.121094 19.566406 7.230469 19.644531 C 7.335938 19.714844 7.433594 19.78125 7.449219 19.792969 C 7.492188 19.820312 7.414062 19.972656 7.359375 19.972656 C 7.335938 19.972656 7.28125 19.949219 7.246094 19.921875 C 7.207031 19.890625 7.171875 19.867188 7.160156 19.867188 C 7.152344 19.867188 7.089844 19.824219 7.019531 19.773438 C 6.871094 19.660156 6.808594 19.65625 6.769531 19.753906 C 6.742188 19.832031 6.75 19.84375 7 20.011719 C 7.316406 20.21875 7.480469 20.320312 7.507812 20.320312 C 7.527344 20.320312 7.554688 20.289062 7.570312 20.246094 C 7.589844 20.207031 7.660156 20.0625 7.734375 19.933594 C 7.804688 19.800781 7.890625 19.640625 7.921875 19.574219 C 7.957031 19.507812 8.003906 19.433594 8.027344 19.402344 C 8.0625 19.359375 8.0625 19.347656 8 19.300781 C 7.886719 19.214844 7.367188 18.878906 7.339844 18.878906 C 7.324219 18.878906 7.300781 18.894531 7.289062 18.910156 Z M 7.289062 18.910156 "/>
<path style=" stroke:none;fill-rule:nonzero;fill:#ffffff;fill-opacity:1;" d="M 17.066406 18.984375 C 16.886719 19.019531 16.65625 19.191406 16.601562 19.324219 C 16.535156 19.480469 16.550781 19.609375 16.636719 19.703125 C 16.75 19.824219 16.90625 19.8125 17.289062 19.660156 C 17.484375 19.578125 17.558594 19.714844 17.398438 19.867188 C 17.308594 19.957031 17.296875 19.960938 17.121094 19.953125 C 16.976562 19.949219 16.925781 19.957031 16.875 19.996094 L 16.8125 20.046875 L 16.878906 20.117188 C 16.933594 20.175781 16.964844 20.1875 17.105469 20.1875 C 17.308594 20.1875 17.457031 20.117188 17.613281 19.941406 C 17.71875 19.824219 17.734375 19.792969 17.734375 19.6875 C 17.734375 19.585938 17.71875 19.554688 17.644531 19.476562 C 17.527344 19.363281 17.464844 19.363281 17.164062 19.46875 C 17.027344 19.515625 16.902344 19.542969 16.867188 19.535156 C 16.734375 19.5 16.769531 19.363281 16.941406 19.257812 C 17.039062 19.199219 17.105469 19.1875 17.242188 19.214844 C 17.308594 19.226562 17.339844 19.214844 17.398438 19.167969 L 17.46875 19.105469 L 17.414062 19.046875 C 17.382812 19.011719 17.339844 18.988281 17.3125 18.988281 C 17.289062 18.988281 17.242188 18.980469 17.214844 18.976562 C 17.183594 18.96875 17.117188 18.972656 17.066406 18.984375 Z M 17.066406 18.984375 "/>
<path style=" stroke:none;fill-rule:nonzero;fill:#ffffff;fill-opacity:1;" d="M 16.046875 19.519531 C 15.957031 19.570312 15.953125 19.574219 15.972656 19.667969 C 15.988281 19.722656 16.007812 19.777344 16.023438 19.792969 C 16.039062 19.8125 16.054688 19.847656 16.054688 19.878906 C 16.054688 19.910156 16.070312 19.960938 16.09375 19.988281 C 16.113281 20.015625 16.132812 20.058594 16.132812 20.078125 C 16.132812 20.101562 16.152344 20.15625 16.171875 20.199219 C 16.195312 20.238281 16.214844 20.289062 16.214844 20.308594 C 16.214844 20.324219 16.238281 20.394531 16.265625 20.464844 C 16.308594 20.550781 16.339844 20.585938 16.375 20.585938 C 16.441406 20.585938 16.585938 20.515625 16.585938 20.480469 C 16.585938 20.460938 16.449219 20.113281 16.335938 19.851562 C 16.292969 19.753906 16.222656 19.574219 16.203125 19.511719 C 16.183594 19.457031 16.171875 19.457031 16.046875 19.519531 Z M 16.046875 19.519531 "/>
<path style=" stroke:none;fill-rule:nonzero;fill:#ffffff;fill-opacity:1;" d="M 8.171875 19.910156 C 8.0625 20.144531 7.953125 20.367188 7.929688 20.40625 C 7.878906 20.507812 7.894531 20.550781 8.015625 20.601562 C 8.136719 20.652344 8.160156 20.632812 8.242188 20.441406 C 8.28125 20.355469 8.324219 20.292969 8.347656 20.292969 C 8.394531 20.292969 8.550781 20.347656 8.632812 20.394531 C 8.664062 20.414062 8.710938 20.425781 8.730469 20.425781 C 8.785156 20.425781 8.785156 20.554688 8.734375 20.65625 C 8.675781 20.761719 8.683594 20.878906 8.742188 20.894531 C 8.765625 20.902344 8.8125 20.925781 8.84375 20.9375 C 8.878906 20.953125 8.921875 20.960938 8.941406 20.953125 C 8.960938 20.945312 9.039062 20.75 9.117188 20.515625 C 9.195312 20.28125 9.273438 20.054688 9.296875 20.011719 C 9.351562 19.910156 9.332031 19.847656 9.234375 19.8125 C 9.109375 19.761719 9.058594 19.789062 9.003906 19.933594 C 8.980469 20.003906 8.949219 20.09375 8.941406 20.125 C 8.910156 20.257812 8.863281 20.261719 8.59375 20.144531 C 8.550781 20.121094 8.5 20.105469 8.484375 20.105469 C 8.4375 20.105469 8.449219 19.960938 8.5 19.863281 C 8.523438 19.8125 8.558594 19.742188 8.578125 19.699219 C 8.601562 19.660156 8.609375 19.617188 8.601562 19.601562 C 8.585938 19.574219 8.433594 19.492188 8.398438 19.492188 C 8.386719 19.492188 8.285156 19.683594 8.171875 19.910156 Z M 8.171875 19.910156 "/>
<path style=" stroke:none;fill-rule:nonzero;fill:#ffffff;fill-opacity:1;" d="M 15.007812 19.847656 C 14.921875 19.882812 14.910156 19.960938 14.96875 20.125 C 14.988281 20.179688 15.027344 20.296875 15.054688 20.386719 C 15.078125 20.476562 15.121094 20.605469 15.144531 20.675781 C 15.183594 20.800781 15.183594 20.804688 15.121094 20.855469 C 15.089844 20.882812 15.042969 20.90625 15.019531 20.90625 C 14.957031 20.90625 14.773438 21.011719 14.773438 21.046875 C 14.773438 21.066406 14.789062 21.105469 14.8125 21.132812 C 14.84375 21.179688 14.863281 21.179688 14.960938 21.15625 C 15.109375 21.117188 15.246094 21.070312 15.339844 21.023438 C 15.382812 21.003906 15.429688 20.988281 15.445312 20.988281 C 15.472656 20.988281 15.761719 20.863281 15.894531 20.792969 C 15.976562 20.75 15.988281 20.695312 15.925781 20.617188 L 15.878906 20.558594 L 15.699219 20.628906 C 15.570312 20.683594 15.511719 20.695312 15.492188 20.675781 C 15.476562 20.660156 15.40625 20.484375 15.34375 20.289062 C 15.171875 19.777344 15.175781 19.78125 15.007812 19.847656 Z M 15.007812 19.847656 "/>
<path style=" stroke:none;fill-rule:nonzero;fill:#ffffff;fill-opacity:1;" d="M 10.011719 20.148438 C 9.992188 20.199219 9.972656 20.265625 9.972656 20.292969 C 9.972656 20.324219 9.960938 20.375 9.945312 20.402344 C 9.929688 20.433594 9.90625 20.511719 9.894531 20.582031 C 9.878906 20.652344 9.851562 20.765625 9.832031 20.839844 C 9.789062 20.992188 9.773438 20.996094 9.519531 20.921875 C 9.375 20.878906 9.375 20.882812 9.328125 20.9375 C 9.261719 21.011719 9.269531 21.054688 9.355469 21.089844 C 9.503906 21.160156 10.550781 21.394531 10.59375 21.367188 C 10.605469 21.363281 10.613281 21.308594 10.613281 21.25 C 10.613281 21.160156 10.605469 21.148438 10.550781 21.148438 C 10.476562 21.148438 10.179688 21.070312 10.15625 21.046875 C 10.144531 21.035156 10.152344 20.960938 10.171875 20.878906 C 10.191406 20.800781 10.230469 20.636719 10.253906 20.519531 C 10.28125 20.402344 10.308594 20.273438 10.324219 20.230469 C 10.351562 20.136719 10.339844 20.125 10.214844 20.082031 C 10.078125 20.039062 10.054688 20.046875 10.011719 20.148438 Z M 10.011719 20.148438 "/>
<path style=" stroke:none;fill-rule:nonzero;fill:#ffffff;fill-opacity:1;" d="M 13.734375 20.265625 C 13.667969 20.28125 13.667969 20.289062 13.667969 20.550781 C 13.667969 20.792969 13.660156 20.824219 13.582031 20.972656 C 13.535156 21.0625 13.492188 21.152344 13.484375 21.171875 C 13.476562 21.195312 13.4375 21.261719 13.398438 21.320312 C 13.367188 21.378906 13.335938 21.449219 13.332031 21.476562 C 13.332031 21.519531 13.347656 21.523438 13.460938 21.507812 C 13.667969 21.476562 13.691406 21.449219 13.824219 21.058594 C 13.855469 20.964844 13.921875 20.976562 14.019531 21.097656 C 14.257812 21.375 14.234375 21.359375 14.410156 21.324219 C 14.5 21.304688 14.574219 21.277344 14.578125 21.265625 C 14.585938 21.25 14.449219 21.105469 14.285156 20.941406 C 13.980469 20.644531 13.980469 20.644531 13.960938 20.492188 C 13.933594 20.246094 13.902344 20.214844 13.734375 20.265625 Z M 13.734375 20.265625 "/>
<path style=" stroke:none;fill-rule:nonzero;fill:#ffffff;fill-opacity:1;" d="M 11.753906 20.492188 C 11.625 20.59375 11.574219 20.691406 11.574219 20.84375 C 11.574219 21.078125 11.773438 21.28125 12.011719 21.28125 C 12.34375 21.28125 12.558594 20.921875 12.394531 20.644531 C 12.300781 20.484375 12.199219 20.425781 11.996094 20.425781 C 11.859375 20.429688 11.8125 20.441406 11.753906 20.492188 Z M 11.753906 20.492188 "/>
</g>
</svg>
